<svg width="121" height="120" viewBox="0 0 121 120" fill="none" xmlns="http://www.w3.org/2000/svg">
<path d="M37.8768 67.2031C54.3725 67.2031 67.7449 53.8307 67.7449 37.3351C67.7449 20.8394 54.3725 7.46701 37.8768 7.46701C21.3812 7.46701 8.00879 20.8394 8.00879 37.3351C8.00879 53.8307 21.3812 67.2031 37.8768 67.2031Z" fill="url(#paint0_linear_114_1779)"/>
<path d="M59.1328 37.3351H16.6455V58.2925C19.4239 61.107 22.7335 63.3417 26.3824 64.867C30.0313 66.3923 33.9468 67.1777 37.9016 67.1777C41.8565 67.1777 45.7719 66.3923 49.4208 64.867C53.0697 63.3417 56.3794 61.107 59.1577 58.2925L59.1328 37.3351Z" fill="url(#paint1_linear_114_1779)"/>
<path d="M37.8767 58.616C49.6161 58.616 59.1328 49.0994 59.1328 37.36C59.1328 25.6205 49.6161 16.1039 37.8767 16.1039C26.1373 16.1039 16.6206 25.6205 16.6206 37.36C16.6206 49.0994 26.1373 58.616 37.8767 58.616Z" fill="url(#paint2_linear_114_1779)"/>
<path d="M37.8768 54.3599C47.2794 54.3599 54.9016 46.7376 54.9016 37.3351C54.9016 27.9325 47.2794 20.3103 37.8768 20.3103C28.4743 20.3103 20.8521 27.9325 20.8521 37.3351C20.8521 46.7376 28.4743 54.3599 37.8768 54.3599Z" fill="url(#paint3_linear_114_1779)"/>
<path d="M40.0173 37.3351H35.7611V24.5665C35.7544 24.2845 35.8043 24.004 35.9076 23.7416C36.011 23.4791 36.1657 23.24 36.3629 23.0382C36.56 22.8365 36.7955 22.6762 37.0554 22.5667C37.3154 22.4573 37.5947 22.401 37.8767 22.4011C38.4378 22.4011 38.976 22.624 39.3727 23.0207C39.7695 23.4175 39.9924 23.9556 39.9924 24.5167L40.0173 37.3351Z" fill="url(#paint4_linear_114_1779)"/>
<path d="M40.0172 33.6762C39.3745 33.29 38.6389 33.086 37.8891 33.086C37.1393 33.086 36.4037 33.29 35.761 33.6762V37.335H40.0172V33.6762Z" fill="url(#paint5_linear_114_1779)"/>
<path d="M46.3891 39.4756H37.8767V35.2194H46.3891C46.9502 35.2194 47.4883 35.4423 47.8851 35.8391C48.2819 36.2358 48.5048 36.7739 48.5048 37.335C48.5081 37.615 48.4558 37.8928 48.3509 38.1523C48.2461 38.4119 48.0908 38.6481 47.894 38.8472C47.6972 39.0463 47.4628 39.2043 47.2045 39.3122C46.9462 39.4201 46.669 39.4756 46.3891 39.4756Z" fill="url(#paint6_linear_114_1779)"/>
<path d="M37.8767 39.4756H41.5355C41.9217 38.8329 42.1258 38.0973 42.1258 37.3475C42.1258 36.5977 41.9217 35.8621 41.5355 35.2194H37.8767V39.4756Z" fill="url(#paint7_linear_114_1779)"/>
<path d="M54.9018 38.4053C55.4929 38.4053 55.9721 37.9261 55.9721 37.335C55.9721 36.7439 55.4929 36.2648 54.9018 36.2648C54.3107 36.2648 53.8315 36.7439 53.8315 37.335C53.8315 37.9261 54.3107 38.4053 54.9018 38.4053Z" fill="url(#paint8_linear_114_1779)"/>
<path d="M37.8767 21.4054C38.4678 21.4054 38.9469 20.9263 38.9469 20.3352C38.9469 19.7441 38.4678 19.2649 37.8767 19.2649C37.2856 19.2649 36.8064 19.7441 36.8064 20.3352C36.8064 20.9263 37.2856 21.4054 37.8767 21.4054Z" fill="url(#paint9_linear_114_1779)"/>
<path d="M37.8767 55.4301C38.4678 55.4301 38.9469 54.9509 38.9469 54.3599C38.9469 53.7688 38.4678 53.2896 37.8767 53.2896C37.2856 53.2896 36.8064 53.7688 36.8064 54.3599C36.8064 54.9509 37.2856 55.4301 37.8767 55.4301Z" fill="url(#paint10_linear_114_1779)"/>
<path d="M20.852 38.4053C21.4431 38.4053 21.9223 37.9261 21.9223 37.335C21.9223 36.7439 21.4431 36.2648 20.852 36.2648C20.2609 36.2648 19.7817 36.7439 19.7817 37.335C19.7817 37.9261 20.2609 38.4053 20.852 38.4053Z" fill="url(#paint11_linear_114_1779)"/>
<path d="M37.8766 39.4507C39.0451 39.4507 39.9923 38.5035 39.9923 37.335C39.9923 36.1666 39.0451 35.2194 37.8766 35.2194C36.7082 35.2194 35.761 36.1666 35.761 37.335C35.761 38.5035 36.7082 39.4507 37.8766 39.4507Z" fill="url(#paint12_linear_114_1779)"/>
<path d="M81.9819 74.6701L80.6627 69.3188H67.7448L66.4505 74.6204C66.1851 75.6745 65.7027 76.6617 65.0341 77.5189C64.3655 78.376 63.5255 79.0843 62.5677 79.5984L61.6965 80.0713V80.6438C62.8166 81.9878 68.0186 83.0083 74.1416 83.0083C80.2645 83.0083 85.5661 81.9878 86.5866 80.6438V80.0713L85.7652 79.6233C84.8286 79.1013 84.0093 78.3923 83.3585 77.5402C82.7076 76.688 82.239 75.7111 81.9819 74.6701Z" fill="url(#paint13_linear_114_1779)"/>
<path d="M112.373 103.493L109.485 96.3245C107.559 91.5031 104.231 87.3702 99.9316 84.4596C95.6322 81.5489 90.5589 79.9944 85.3669 79.9966H62.9658C57.7739 79.9944 52.7005 81.5489 48.4011 84.4596C44.1017 87.3702 40.7738 91.5031 38.8474 96.3245L35.985 103.493C35.8433 103.816 35.7719 104.165 35.7755 104.518C35.7791 104.871 35.8577 105.219 36.0059 105.539C36.1542 105.859 36.3688 106.144 36.6356 106.375C36.9023 106.606 37.2151 106.777 37.5531 106.878C49.4329 110.406 61.7744 112.135 74.1664 112.005C86.5667 112.137 98.9167 110.409 110.805 106.878C111.143 106.777 111.455 106.606 111.722 106.375C111.989 106.144 112.203 105.859 112.352 105.539C112.5 105.219 112.579 104.871 112.582 104.518C112.586 104.165 112.514 103.816 112.373 103.493Z" fill="url(#paint14_linear_114_1779)"/>
<path d="M85.392 79.9966H62.991H61.5972C62.0671 83.9486 63.4525 87.7366 65.6431 91.0593C67.8338 94.382 70.7693 97.1479 74.2164 99.1371C77.6635 97.1479 80.5991 94.382 82.7897 91.0593C84.9804 87.7366 86.3657 83.9486 86.8357 79.9966H85.392Z" fill="url(#paint15_linear_114_1779)"/>
<path d="M61.5471 80.0464C61.7665 81.8353 62.1753 83.5957 62.7667 85.2982L65.8282 87.5134C66.3025 87.8556 66.8425 88.0957 67.4143 88.2187C67.986 88.3417 68.577 88.3448 69.15 88.2278C69.723 88.1109 70.2656 87.8764 70.7434 87.5393C71.2212 87.2021 71.624 86.7696 71.9263 86.2689L74.1415 82.6101L71.1049 79.9966H62.941L61.5471 80.0464Z" fill="url(#paint16_linear_114_1779)"/>
<path d="M85.3918 79.9966H77.427L74.3904 82.6101L76.6056 86.2689C76.9079 86.7696 77.3106 87.2021 77.7885 87.5393C78.2663 87.8764 78.8088 88.1109 79.3818 88.2278C79.9548 88.3448 80.5459 88.3417 81.1176 88.2187C81.6893 88.0957 82.2294 87.8556 82.7037 87.5134L85.5162 85.4973C86.1368 83.7406 86.5625 81.921 86.7856 80.0713L85.3918 79.9966Z" fill="url(#paint17_linear_114_1779)"/>
<path d="M77.9996 96.424C77.8078 91.7658 76.4928 87.2229 74.1665 83.1825C71.8054 87.2139 70.456 91.7574 70.2339 96.424C71.4237 97.4611 72.7069 98.386 74.067 99.1868C75.4616 98.3913 76.7783 97.4663 77.9996 96.424Z" fill="url(#paint18_linear_114_1779)"/>
<path d="M74.1665 99.2117C75.5267 98.411 76.8098 97.4861 77.9996 96.4489C77.8078 91.7907 76.4928 87.2478 74.1665 83.2074V99.2117Z" fill="url(#paint19_linear_114_1779)"/>
<path d="M67.7449 80.0464C67.7449 81.7429 68.4188 83.3699 69.6184 84.5696C70.8181 85.7692 72.4451 86.4431 74.1416 86.4431C75.8381 86.4431 77.4652 85.7692 78.6648 84.5696C79.8644 83.3699 80.5384 81.7429 80.5384 80.0464H67.7449Z" fill="url(#paint20_linear_114_1779)"/>
<path d="M76.6554 22.401H71.6774C66.6092 22.3907 61.7277 24.3135 58.0279 27.7774C54.3281 31.2413 52.0885 35.9857 51.7654 41.0437C51.7311 41.8796 51.8064 42.7164 51.9894 43.5327L53.881 52.7918H94.4269L96.3186 43.5327C96.5016 42.7164 96.5769 41.8796 96.5426 41.0437C96.2198 35.99 93.9836 31.2492 90.2891 27.7859C86.5946 24.3226 81.7194 22.3971 76.6554 22.401Z" fill="url(#paint21_linear_114_1779)"/>
<path d="M76.6555 25.2136H71.6775C66.7883 25.2193 62.0721 27.0235 58.4276 30.2825C54.783 33.5415 52.4648 38.0274 51.9148 42.8856C51.9148 43.1096 51.9148 43.3336 51.9148 43.5576L53.8064 52.8167H94.427L96.3186 43.5576C96.3186 43.3336 96.3186 43.1096 96.3186 42.8856C95.7706 38.0444 93.4667 33.5722 89.8431 30.3155C86.2194 27.0588 81.5275 25.2436 76.6555 25.2136Z" fill="url(#paint22_linear_114_1779)"/>
<path d="M93.3568 59.5868V40.9441L74.1666 31.9588L54.9763 40.9441V59.5868C54.9733 61.6345 55.5101 63.6468 56.5326 65.4209C57.5551 67.1951 59.0272 68.6683 60.8006 69.6921L62.6425 70.7624C66.1462 72.7853 70.1208 73.8503 74.1666 73.8503C78.2124 73.8503 82.1869 72.7853 85.6906 70.7624L87.657 69.6921C89.4072 68.6526 90.8544 67.1726 91.8545 65.3996C92.8546 63.6265 93.3725 61.6224 93.3568 59.5868Z" fill="url(#paint23_linear_114_1779)"/>
<path d="M69.3877 34.1989L54.9763 40.9441V48.0129H73.0465C74.7378 48.0125 76.4091 47.6476 77.9468 46.9433C79.4844 46.2389 80.8522 45.2114 81.9571 43.9309C82.2066 43.6483 82.517 43.4261 82.8649 43.281C83.2128 43.1359 83.5891 43.0718 83.9654 43.0933C84.3417 43.1149 84.7083 43.2217 85.0373 43.4056C85.3663 43.5895 85.6493 43.8457 85.8649 44.1549C86.6788 45.3447 87.7707 46.318 89.0459 46.9903C90.321 47.6626 91.741 48.0136 93.1825 48.0129H93.3817V40.9441L75.9586 32.83L69.3877 34.1989Z" fill="url(#paint24_linear_114_1779)"/>
<path d="M68.7652 62.7976C68.6302 62.7988 68.4971 62.8297 68.3754 62.8881C68.2536 62.9464 68.1462 63.0308 68.0607 63.1353C67.9752 63.2398 67.9137 63.3618 67.8806 63.4927C67.8475 63.6236 67.8436 63.7602 67.8692 63.8928C68.1182 65.3863 68.889 66.743 70.0443 67.7217C71.1996 68.7003 72.6647 69.2374 74.1788 69.2374C75.6929 69.2374 77.158 68.7003 78.3133 67.7217C79.4687 66.743 80.2394 65.3863 80.4884 63.8928C80.514 63.7602 80.5101 63.6236 80.477 63.4927C80.4439 63.3618 80.3824 63.2398 80.2969 63.1353C80.2114 63.0308 80.104 62.9464 79.9822 62.8881C79.8605 62.8297 79.7274 62.7988 79.5924 62.7976H68.7652Z" fill="url(#paint25_linear_114_1779)"/>
<path d="M54.9762 57.5956C54.118 57.5956 53.295 57.2547 52.6882 56.6479C52.0814 56.041 51.7405 55.218 51.7405 54.3599V51.2486C51.7405 50.3905 52.0814 49.5674 52.6882 48.9606C53.295 48.3538 54.118 48.0129 54.9762 48.0129V57.5956Z" fill="url(#paint26_linear_114_1779)"/>
<path d="M93.3564 57.5956C94.2146 57.5956 95.0376 57.2547 95.6444 56.6479C96.2512 56.041 96.5921 55.218 96.5921 54.3599V51.2486C96.5921 50.3905 96.2512 49.5674 95.6444 48.9606C95.0376 48.3538 94.2146 48.0129 93.3564 48.0129V57.5956Z" fill="url(#paint27_linear_114_1779)"/>
<path d="M68.7652 60.8064C68.6302 60.8076 68.4971 60.8385 68.3754 60.8968C68.2536 60.9552 68.1462 61.0396 68.0607 61.1441C67.9752 61.2486 67.9137 61.3706 67.8806 61.5015C67.8475 61.6324 67.8436 61.769 67.8692 61.9016C68.1182 63.3951 68.889 64.7518 70.0443 65.7305C71.1996 66.7091 72.6647 67.2462 74.1788 67.2462C75.6929 67.2462 77.158 66.7091 78.3133 65.7305C79.4687 64.7518 80.2394 63.3951 80.4884 61.9016C80.514 61.769 80.5101 61.6324 80.477 61.5015C80.4439 61.3706 80.3824 61.2486 80.2969 61.1441C80.2114 61.0396 80.104 60.9552 79.9822 60.8968C79.8605 60.8385 79.7274 60.8076 79.5924 60.8064H68.7652Z" fill="url(#paint28_linear_114_1779)"/>
<path d="M74.1664 63.9923C72.6086 63.9882 71.1034 64.5549 69.9351 65.5853C71.0996 66.6141 72.6 67.182 74.1539 67.182C75.7079 67.182 77.2083 66.6141 78.3728 65.5853C77.2109 64.5606 75.7155 63.9943 74.1664 63.9923Z" fill="url(#paint29_linear_114_1779)"/>
<path d="M84.8444 32.1579V28.2751L54.5034 34.4976V45.2501H73.0465C74.7378 45.2497 76.4092 44.8849 77.9468 44.1805C79.4844 43.4761 80.8523 42.4486 81.9571 41.1681C82.2066 40.8856 82.517 40.6633 82.8649 40.5182C83.2128 40.3732 83.5891 40.309 83.9654 40.3305C84.3418 40.3521 84.7083 40.4589 85.0373 40.6428C85.3664 40.8267 85.6493 41.0829 85.8649 41.3921C86.6788 42.5819 87.7707 43.5552 89.0459 44.2275C90.3211 44.8998 91.741 45.2508 93.1826 45.2501H94.2279V34.6718L84.8444 32.1579Z" fill="url(#paint30_linear_114_1779)"/>
<path d="M67.3963 74.2221C67.3025 74.1416 67.1933 74.0808 67.0755 74.0434C66.9576 74.006 66.8334 73.9927 66.7103 74.0043C66.5872 74.0159 66.4677 74.0522 66.3589 74.111C66.2501 74.1698 66.1543 74.2499 66.0772 74.3466L61.6467 79.9468L67.2968 84.0288C67.6935 84.3158 68.1456 84.5173 68.6244 84.6204C69.1031 84.7234 69.598 84.7259 70.0778 84.6276C70.5575 84.5293 71.0116 84.3324 71.4112 84.0494C71.8109 83.7663 72.1473 83.4033 72.3992 82.9834L74.2411 79.9219L67.3963 74.2221Z" fill="url(#paint31_linear_114_1779)"/>
<path d="M81.1106 74.2221C81.2045 74.1416 81.3136 74.0808 81.4315 74.0434C81.5493 74.006 81.6735 73.9927 81.7966 74.0043C81.9197 74.0159 82.0393 74.0522 82.148 74.111C82.2568 74.1698 82.3526 74.2499 82.4298 74.3466L86.8602 79.9468L81.2102 84.0288C80.8134 84.3158 80.3613 84.5173 79.8826 84.6204C79.4039 84.7234 78.9089 84.7259 78.4292 84.6276C77.9494 84.5293 77.4954 84.3324 77.0957 84.0494C76.6961 83.7663 76.3597 83.4033 76.1077 82.9834L74.2659 79.9219L81.1106 74.2221Z" fill="url(#paint32_linear_114_1779)"/>
<path d="M88.1298 36.5386C87.1943 36.5662 86.3044 36.9488 85.6408 37.6088L82.5046 40.745C83.0462 40.3696 83.7146 40.2243 84.3631 40.3409C85.0117 40.4576 85.5875 40.8267 85.9644 41.3672C86.7783 42.557 87.8702 43.5303 89.1453 44.2026C90.4205 44.8749 91.8405 45.2259 93.282 45.2252H93.4811V44.354C93.4777 41.934 92.5929 39.5981 90.9921 37.7831C90.6485 37.387 90.2243 37.0689 89.7478 36.85C89.2714 36.6311 88.7537 36.5164 88.2293 36.5137L88.1298 36.5386Z" fill="url(#paint33_linear_114_1779)"/>
<defs>
<linearGradient id="paint0_linear_114_1779" x1="37.8768" y1="71.9322" x2="37.8768" y2="-27.7773" gradientUnits="userSpaceOnUse">
<stop stop-color="#27E9DE"/>
<stop offset="0.52" stop-color="#03A4EC"/>
<stop offset="1" stop-color="#2547A8"/>
</linearGradient>
<linearGradient id="paint1_linear_114_1779" x1="37.8767" y1="86.2938" x2="37.8767" y2="24.9149" gradientUnits="userSpaceOnUse">
<stop stop-color="#27E9DE"/>
<stop offset="0.52" stop-color="#03A4EC"/>
<stop offset="1" stop-color="#2547A8"/>
</linearGradient>
<linearGradient id="paint2_linear_114_1779" x1="37.8767" y1="66.6555" x2="37.8767" y2="-16.4772" gradientUnits="userSpaceOnUse">
<stop stop-color="white"/>
<stop offset="0.52" stop-color="#CCE2E6"/>
<stop offset="1" stop-color="#8FA1BB"/>
</linearGradient>
<linearGradient id="paint3_linear_114_1779" x1="37.8768" y1="33.0789" x2="37.8768" y2="-14.7598" gradientUnits="userSpaceOnUse">
<stop stop-color="white"/>
<stop offset="0.52" stop-color="#CCE2E6"/>
<stop offset="1" stop-color="#8FA1BB"/>
</linearGradient>
<linearGradient id="paint4_linear_114_1779" x1="37.8767" y1="42.0393" x2="37.8767" y2="5.50072" gradientUnits="userSpaceOnUse">
<stop stop-color="#27E9DE"/>
<stop offset="0.52" stop-color="#03A4EC"/>
<stop offset="1" stop-color="#2547A8"/>
</linearGradient>
<linearGradient id="paint5_linear_114_1779" x1="37.8766" y1="44.6278" x2="37.8766" y2="21.1067" gradientUnits="userSpaceOnUse">
<stop stop-color="#27E9DE"/>
<stop offset="0.52" stop-color="#03A4EC"/>
<stop offset="1" stop-color="#2547A8"/>
</linearGradient>
<linearGradient id="paint6_linear_114_1779" x1="43.2032" y1="47.7391" x2="43.2032" y2="27.5533" gradientUnits="userSpaceOnUse">
<stop stop-color="#F3C57A"/>
<stop offset="0.49" stop-color="#F39369"/>
<stop offset="1" stop-color="#E94867"/>
</linearGradient>
<linearGradient id="paint7_linear_114_1779" x1="40.0173" y1="53.0656" x2="40.0173" y2="32.2575" gradientUnits="userSpaceOnUse">
<stop stop-color="#F3C57A"/>
<stop offset="0.49" stop-color="#F39369"/>
<stop offset="1" stop-color="#E94867"/>
</linearGradient>
<linearGradient id="paint8_linear_114_1779" x1="54.5534" y1="41.417" x2="55.6983" y2="28.5489" gradientUnits="userSpaceOnUse">
<stop stop-color="#27E9DE"/>
<stop offset="0.52" stop-color="#03A4EC"/>
<stop offset="1" stop-color="#2547A8"/>
</linearGradient>
<linearGradient id="paint9_linear_114_1779" x1="96.1941" y1="50.8006" x2="17.8153" y2="9.83156" gradientUnits="userSpaceOnUse">
<stop stop-color="white"/>
<stop offset="0.52" stop-color="#CCE2E6"/>
<stop offset="1" stop-color="#8FA1BB"/>
</linearGradient>
<linearGradient id="paint10_linear_114_1779" x1="82.2059" y1="77.5325" x2="3.82706" y2="36.5635" gradientUnits="userSpaceOnUse">
<stop stop-color="white"/>
<stop offset="0.52" stop-color="#CCE2E6"/>
<stop offset="1" stop-color="#8FA1BB"/>
</linearGradient>
<linearGradient id="paint11_linear_114_1779" x1="85.5412" y1="71.1358" x2="7.16246" y2="30.1916" gradientUnits="userSpaceOnUse">
<stop stop-color="white"/>
<stop offset="0.52" stop-color="#CCE2E6"/>
<stop offset="1" stop-color="#8FA1BB"/>
</linearGradient>
<linearGradient id="paint12_linear_114_1779" x1="37.8766" y1="46.7435" x2="37.8766" y2="23.2473" gradientUnits="userSpaceOnUse">
<stop stop-color="#273A9B"/>
<stop offset="0.56" stop-color="#202F65"/>
<stop offset="1" stop-color="#021E2F"/>
</linearGradient>
<linearGradient id="paint13_linear_114_1779" x1="74.1664" y1="90.5749" x2="74.1664" y2="69.7668" gradientUnits="userSpaceOnUse">
<stop stop-color="white"/>
<stop offset="0.52" stop-color="#CCE2E6"/>
<stop offset="1" stop-color="#8FA1BB"/>
</linearGradient>
<linearGradient id="paint14_linear_114_1779" x1="74.1664" y1="149.116" x2="74.1664" y2="44.3043" gradientUnits="userSpaceOnUse">
<stop stop-color="#273A9B"/>
<stop offset="0.56" stop-color="#202F65"/>
<stop offset="1" stop-color="#021E2F"/>
</linearGradient>
<linearGradient id="paint15_linear_114_1779" x1="74.1666" y1="107.55" x2="74.1666" y2="44.8021" gradientUnits="userSpaceOnUse">
<stop stop-color="white"/>
<stop offset="0.52" stop-color="#CCE2E6"/>
<stop offset="1" stop-color="#8FA1BB"/>
</linearGradient>
<linearGradient id="paint16_linear_114_1779" x1="67.8443" y1="101.775" x2="67.8443" y2="72.4549" gradientUnits="userSpaceOnUse">
<stop stop-color="white"/>
<stop offset="0.52" stop-color="#CCE2E6"/>
<stop offset="1" stop-color="#8FA1BB"/>
</linearGradient>
<linearGradient id="paint17_linear_114_1779" x1="80.5631" y1="101.775" x2="80.5631" y2="72.4549" gradientUnits="userSpaceOnUse">
<stop stop-color="white"/>
<stop offset="0.52" stop-color="#CCE2E6"/>
<stop offset="1" stop-color="#8FA1BB"/>
</linearGradient>
<linearGradient id="paint18_linear_114_1779" x1="74.1665" y1="104.464" x2="74.1665" y2="72.9776" gradientUnits="userSpaceOnUse">
<stop stop-color="#27E9DE"/>
<stop offset="0.52" stop-color="#03A4EC"/>
<stop offset="1" stop-color="#2547A8"/>
</linearGradient>
<linearGradient id="paint19_linear_114_1779" x1="76.083" y1="108.62" x2="76.083" y2="75.616" gradientUnits="userSpaceOnUse">
<stop stop-color="#27E9DE"/>
<stop offset="0.52" stop-color="#03A4EC"/>
<stop offset="1" stop-color="#2547A8"/>
</linearGradient>
<linearGradient id="paint20_linear_114_1779" x1="74.1665" y1="101.427" x2="74.1665" y2="76.5369" gradientUnits="userSpaceOnUse">
<stop stop-color="#27E9DE"/>
<stop offset="0.52" stop-color="#03A4EC"/>
<stop offset="1" stop-color="#2547A8"/>
</linearGradient>
<linearGradient id="paint21_linear_114_1779" x1="74.1664" y1="14.262" x2="74.1664" y2="65.5355" gradientUnits="userSpaceOnUse">
<stop stop-color="#273A9B"/>
<stop offset="0.56" stop-color="#202F65"/>
<stop offset="1" stop-color="#021E2F"/>
</linearGradient>
<linearGradient id="paint22_linear_114_1779" x1="74.1665" y1="52.7171" x2="74.1665" y2="15.7554" gradientUnits="userSpaceOnUse">
<stop stop-color="#273A9B"/>
<stop offset="0.56" stop-color="#202F65"/>
<stop offset="1" stop-color="#021E2F"/>
</linearGradient>
<linearGradient id="paint23_linear_114_1779" x1="74.1666" y1="24.3425" x2="74.1666" y2="98.5895" gradientUnits="userSpaceOnUse">
<stop stop-color="white"/>
<stop offset="0.52" stop-color="#CCE2E6"/>
<stop offset="1" stop-color="#8FA1BB"/>
</linearGradient>
<linearGradient id="paint24_linear_114_1779" x1="74.1665" y1="72.8034" x2="74.1665" y2="33.7509" gradientUnits="userSpaceOnUse">
<stop stop-color="white"/>
<stop offset="0.52" stop-color="#CCE2E6"/>
<stop offset="1" stop-color="#8FA1BB"/>
</linearGradient>
<linearGradient id="paint25_linear_114_1779" x1="74.1664" y1="90.8487" x2="74.1664" y2="40.4712" gradientUnits="userSpaceOnUse">
<stop stop-color="white"/>
<stop offset="0.52" stop-color="#CCE2E6"/>
<stop offset="1" stop-color="#8FA1BB"/>
</linearGradient>
<linearGradient id="paint26_linear_114_1779" x1="53.3334" y1="32.6309" x2="53.3334" y2="67.8005" gradientUnits="userSpaceOnUse">
<stop stop-color="white"/>
<stop offset="0.52" stop-color="#CCE2E6"/>
<stop offset="1" stop-color="#8FA1BB"/>
</linearGradient>
<linearGradient id="paint27_linear_114_1779" x1="94.9992" y1="32.6309" x2="94.9992" y2="67.8005" gradientUnits="userSpaceOnUse">
<stop stop-color="white"/>
<stop offset="0.52" stop-color="#CCE2E6"/>
<stop offset="1" stop-color="#8FA1BB"/>
</linearGradient>
<linearGradient id="paint28_linear_114_1779" x1="74.1664" y1="88.8326" x2="74.1664" y2="38.48" gradientUnits="userSpaceOnUse">
<stop stop-color="#273A9B"/>
<stop offset="0.56" stop-color="#202F65"/>
<stop offset="1" stop-color="#021E2F"/>
</linearGradient>
<linearGradient id="paint29_linear_114_1779" x1="74.1664" y1="55.3306" x2="74.1664" y2="73.127" gradientUnits="userSpaceOnUse">
<stop stop-color="#27E9DE"/>
<stop offset="0.52" stop-color="#03A4EC"/>
<stop offset="1" stop-color="#2547A8"/>
</linearGradient>
<linearGradient id="paint30_linear_114_1779" x1="74.3657" y1="52.7171" x2="74.3657" y2="11.9721" gradientUnits="userSpaceOnUse">
<stop stop-color="#273A9B"/>
<stop offset="0.56" stop-color="#202F65"/>
<stop offset="1" stop-color="#021E2F"/>
</linearGradient>
<linearGradient id="paint31_linear_114_1779" x1="71.2294" y1="84.4768" x2="56.9923" y2="65.7844" gradientUnits="userSpaceOnUse">
<stop stop-color="white"/>
<stop offset="0.52" stop-color="#CCE2E6"/>
<stop offset="1" stop-color="#8FA1BB"/>
</linearGradient>
<linearGradient id="paint32_linear_114_1779" x1="77.3025" y1="84.4768" x2="91.5396" y2="65.7844" gradientUnits="userSpaceOnUse">
<stop stop-color="white"/>
<stop offset="0.52" stop-color="#CCE2E6"/>
<stop offset="1" stop-color="#8FA1BB"/>
</linearGradient>
<linearGradient id="paint33_linear_114_1779" x1="88.6276" y1="48.0378" x2="86.6862" y2="32.8548" gradientUnits="userSpaceOnUse">
<stop stop-color="#273A9B"/>
<stop offset="0.56" stop-color="#202F65"/>
<stop offset="1" stop-color="#021E2F"/>
</linearGradient>
</defs>
</svg>
