<svg width="121" height="121" viewBox="0 0 121 121" fill="none" xmlns="http://www.w3.org/2000/svg">
<g clip-path="url(#clip0_114_1814)">
<path d="M120.458 60.2945C120.458 93.2868 93.7133 120.031 60.7215 120.031C27.7297 120.031 0.986084 93.2868 0.986084 60.2945C0.986084 27.3017 27.7299 0.55835 60.7215 0.55835C93.7131 0.55835 120.458 27.3017 120.458 60.2945Z" fill="#C1D354"/>
<path d="M120.276 64.721L90.5896 35.0333H88.395C88.0037 34.1032 87.0808 33.455 86.014 33.455C84.9388 33.455 84.0266 34.1032 83.6246 35.0333H82.0971C81.7058 34.1032 80.7829 33.455 79.716 33.455C78.6408 33.455 77.7286 34.1032 77.3285 35.0333H75.7991C75.4078 34.1032 74.4849 33.455 73.4199 33.455C72.3531 33.455 71.4307 34.1032 71.0305 35.0333H69.5114C69.1101 34.1032 68.1888 33.455 67.122 33.455C66.0551 33.455 65.1327 34.1032 64.7325 35.0333H63.2135C62.8121 34.1032 61.8993 33.455 60.8247 33.455C59.7579 33.455 58.835 34.1032 58.4353 35.0333H56.9162C56.5233 34.1032 55.602 33.455 54.5352 33.455C53.4599 33.455 52.5466 34.1032 52.1457 35.0333H50.6183C50.2253 34.1032 49.3041 33.455 48.2372 33.455C47.162 33.455 46.2487 34.1032 45.8478 35.0333H44.3287C43.9273 34.1032 43.0061 33.455 41.9393 33.455C40.864 33.455 39.9512 34.1032 39.5498 35.0333H38.0307C37.6299 34.1032 36.7081 33.455 35.6413 33.455C34.5744 33.455 33.6532 34.1032 33.2518 35.0333H30.854V87.1327L63.6713 119.955C93.818 118.489 118.081 94.6737 120.276 64.721Z" fill="#9DB138"/>
<path d="M90.5896 35.0333H30.8535V87.1351H90.5896V35.0333Z" fill="white"/>
<path d="M90.5896 75.1925H30.8535V87.1362H90.5896V75.1925Z" fill="#FF8E31"/>
<path d="M56.1512 43.3891H50.9971V46.9971H56.1512V43.3891Z" fill="#CEE2F2"/>
<path d="M63.3006 43.3891H58.1472V46.9971H63.3006V43.3891Z" fill="#CEE2F2"/>
<path d="M70.4442 43.3891H65.292V46.9971H70.4442V43.3891Z" fill="#CEE2F2"/>
<path d="M77.6012 43.3891H72.4482V46.9971H77.6012V43.3891Z" fill="#CEE2F2"/>
<path d="M84.7481 43.3891H79.5928V46.9971H84.7481V43.3891Z" fill="#CEE2F2"/>
<path d="M41.8478 48.9924H36.6956V52.6004H41.8478V48.9924Z" fill="#0684BA"/>
<path d="M48.9985 48.9924H43.8469V52.6004H48.9985V48.9924Z" fill="#0684BA"/>
<path d="M56.1512 48.9924H50.9971V52.6004H56.1512V48.9924Z" fill="#CEE2F2"/>
<path d="M63.3006 48.9924H58.1472V52.6004H63.3006V48.9924Z" fill="#CEE2F2"/>
<path d="M70.4442 48.9924H65.292V52.6004H70.4442V48.9924Z" fill="#CEE2F2"/>
<path d="M77.6012 48.9924H72.4482V52.6004H77.6012V48.9924Z" fill="#CEE2F2"/>
<path d="M84.7481 48.9924H79.5928V52.6004H84.7481V48.9924Z" fill="#CEE2F2"/>
<path d="M41.8478 54.5957H36.6956V58.2037H41.8478V54.5957Z" fill="#0684BA"/>
<path d="M48.9985 54.5957H43.8469V58.2037H48.9985V54.5957Z" fill="#0684BA"/>
<path d="M56.1512 54.5957H50.9971V58.2037H56.1512V54.5957Z" fill="#CEE2F2"/>
<path d="M63.3006 54.5957H58.1472V58.2037H63.3006V54.5957Z" fill="#CEE2F2"/>
<path d="M70.4442 54.5957H65.292V58.2037H70.4442V54.5957Z" fill="#CEE2F2"/>
<path d="M77.6012 54.5957H72.4482V58.2037H77.6012V54.5957Z" fill="#CEE2F2"/>
<path d="M84.7481 54.5957H79.5928V58.2037H84.7481V54.5957Z" fill="#CEE2F2"/>
<path d="M41.8478 60.1988H36.6956V63.8068H41.8478V60.1988Z" fill="#0684BA"/>
<path d="M48.9985 60.1988H43.8469V63.8067H48.9985V60.1988Z" fill="#0684BA"/>
<path d="M56.1512 60.1988H50.9971V63.8068H56.1512V60.1988Z" fill="#CEE2F2"/>
<path d="M63.3006 60.1988H58.1472V63.8067H63.3006V60.1988Z" fill="#CEE2F2"/>
<path d="M70.4442 60.1988H65.292V63.8067H70.4442V60.1988Z" fill="#CEE2F2"/>
<path d="M77.6012 60.1988H72.4482V63.8067H77.6012V60.1988Z" fill="#CEE2F2"/>
<path d="M84.7481 60.1988H79.5928V63.8067H84.7481V60.1988Z" fill="#CEE2F2"/>
<path d="M41.8478 65.8081H36.6956V69.4161H41.8478V65.8081Z" fill="#0684BA"/>
<path d="M48.9985 65.8081H43.8469V69.4161H48.9985V65.8081Z" fill="#0684BA"/>
<path d="M56.1512 65.8081H50.9971V69.4161H56.1512V65.8081Z" fill="#CEE2F2"/>
<path d="M63.3006 65.8081H58.1472V69.4161H63.3006V65.8081Z" fill="#CEE2F2"/>
<path d="M81.7417 87.1351V78.2899H90.5896L81.7417 87.1351Z" fill="white"/>
<path d="M90.5896 78.2899V87.1351H81.7417L90.5896 78.2899Z" fill="#F28124"/>
<path d="M35.6419 34.4352C36.145 34.4352 36.5942 34.6707 36.8891 35.0333H38.026C37.6316 34.105 36.7106 33.4533 35.6419 33.4533C34.2113 33.4533 33.0469 34.6189 33.0469 36.0472C33.0469 37.4785 34.211 38.6422 35.6419 38.6422V37.6607C34.7512 37.6607 34.0279 36.9374 34.0279 36.0472C34.0279 35.1586 34.7512 34.4352 35.6419 34.4352Z" fill="#34495E"/>
<path d="M41.9378 34.4352C42.4432 34.4352 42.8889 34.6707 43.1857 35.0333H44.3237C43.9282 34.1051 43.006 33.4533 41.9378 33.4533C40.5088 33.4533 39.3428 34.6189 39.3428 36.0472C39.3428 37.4785 40.5088 38.6422 41.9378 38.6422V37.6608C41.049 37.6608 40.3249 36.9374 40.3249 36.0472C40.3249 35.1586 41.049 34.4352 41.9378 34.4352Z" fill="#34495E"/>
<path d="M48.2331 34.4352C48.739 34.4352 49.187 34.6707 49.4822 35.0333H50.6214C50.2247 34.1051 49.3037 33.4533 48.2331 33.4533C46.8041 33.4533 45.6406 34.6189 45.6406 36.0472C45.6406 37.4785 46.8043 38.6422 48.2331 38.6422V37.6608C47.3447 37.6608 46.6232 36.9374 46.6232 36.0472C46.6225 35.1586 47.3447 34.4352 48.2331 34.4352Z" fill="#34495E"/>
<path d="M54.5292 34.4352C55.0346 34.4352 55.482 34.6707 55.779 35.0333H56.9152C56.5185 34.1051 55.5991 33.4533 54.5292 33.4533C53.0998 33.4533 51.9368 34.6189 51.9368 36.0472C51.9368 37.4785 53.1005 38.6422 54.5292 38.6422V37.6608C53.6409 37.6608 52.9163 36.9374 52.9163 36.0472C52.917 35.1586 53.6411 34.4352 54.5292 34.4352Z" fill="#34495E"/>
<path d="M60.8256 34.4352C61.3303 34.4352 61.779 34.6707 62.0754 35.0333H63.2127C62.8141 34.1051 61.895 33.4533 60.8251 33.4533C59.3968 33.4533 58.2327 34.6189 58.2327 36.0472C58.2327 37.4785 59.3968 38.6422 60.8251 38.6422V37.6608C59.9363 37.6608 59.2157 36.9374 59.2157 36.0472C59.2162 35.1586 59.9368 34.4352 60.8256 34.4352Z" fill="#34495E"/>
<path d="M67.1215 34.4352C67.6246 34.4352 68.0738 34.6707 68.3706 35.0333H69.5074C69.1096 34.1051 68.1914 33.4533 67.1215 33.4533C65.692 33.4533 64.5291 34.6189 64.5291 36.0472C64.5291 37.4785 65.692 38.6422 67.1215 38.6422V37.6608C66.2332 37.6608 65.5121 36.9374 65.5121 36.0472C65.5124 35.1586 66.2334 34.4352 67.1215 34.4352Z" fill="#34495E"/>
<path d="M73.4198 34.4352C73.9228 34.4352 74.3702 34.6707 74.667 35.0333H75.8043C75.4076 34.1051 74.4882 33.4533 73.4195 33.4533C71.9889 33.4533 70.8252 34.6189 70.8252 36.0472C70.8252 37.4785 71.9889 38.6422 73.4195 38.6422V37.6608C72.53 37.6608 71.809 36.9374 71.809 36.0472C71.8094 35.1586 72.5305 34.4352 73.4198 34.4352Z" fill="#34495E"/>
<path d="M79.7161 34.4352C80.2196 34.4352 80.6672 34.6707 80.9652 35.0333H82.1025C81.7039 34.1051 80.7848 33.4533 79.7161 33.4533C78.2871 33.4533 77.1199 34.6189 77.1199 36.0472C77.1199 37.4785 78.2871 38.6422 79.7161 38.6422V37.6608C78.8247 37.6608 78.1039 36.9374 78.1039 36.0472C78.1037 35.1586 78.8247 34.4352 79.7161 34.4352Z" fill="#34495E"/>
<path d="M86.0109 34.4352C86.5156 34.4352 86.9648 34.6707 87.2593 35.0333H88.3966C87.9999 34.1051 87.0805 33.4533 86.0106 33.4533C84.5812 33.4533 83.4175 34.6189 83.4175 36.0472C83.4175 37.4785 84.5812 38.6422 86.0106 38.6422V37.6608C85.1242 37.6608 84.3978 36.9374 84.3978 36.0472C84.398 35.1586 85.1244 34.4352 86.0109 34.4352Z" fill="#34495E"/>
</g>
<defs>
<clipPath id="clip0_114_1814">
<rect width="119.472" height="119.472" fill="white" transform="translate(0.986084 0.55835)"/>
</clipPath>
</defs>
</svg>
