<svg width="121" height="120" viewBox="0 0 121 120" fill="none" xmlns="http://www.w3.org/2000/svg">
<g clip-path="url(#clip0_132_1894)">
<path d="M35.2804 66.3666V78.3573C35.2804 80.1809 34.1705 81.7914 32.5435 82.3279L15.5549 87.9293C12.3018 89.0023 10.0818 92.2229 10.0818 95.8704V126.084C10.0818 131.82 14.421 136.469 19.7737 136.469H24.6194H75.5011V66.3666H35.2804Z" fill="#D29B6E"/>
<path d="M48.8494 97.5235C39.4684 97.5235 31.1978 92.2467 26.4446 84.3392L15.5556 87.9297C12.3025 89.0024 10.0825 92.223 10.0825 95.8705V126.084C10.0825 131.82 14.4217 136.47 19.7744 136.47H24.6202H75.5018V68.9634C75.5015 84.6714 63.5081 97.5235 48.8494 97.5235Z" fill="#F88448"/>
<path d="M75.5012 68.9634C75.5012 84.6714 63.5077 97.5238 48.8488 97.5238C39.4678 97.5238 31.1972 92.247 26.444 84.3395L21.6453 85.9217C27.1048 95.9552 37.2288 102.716 48.8488 102.716C60.0889 102.716 69.9269 96.3879 75.5012 86.894V68.9634Z" fill="#F88448"/>
<path d="M51.2719 123.487H27.0423C25.7044 123.487 24.6194 122.325 24.6194 120.891V105.313L11.4458 91.196C10.5873 92.5436 10.0818 94.1549 10.0818 95.8704V126.084C10.0818 131.82 14.421 136.469 19.7737 136.469H24.6194H58.5406V131.277C58.5406 126.975 55.2863 123.487 51.2719 123.487Z" fill="#F88448"/>
<path d="M70.6554 48.192H69.0846L68.2325 30.0173H29.4653L28.6125 48.192H27.0424C25.0352 48.192 23.408 49.9357 23.408 52.0867V57.2793C23.408 59.4303 25.0352 61.174 27.0424 61.174H30.5508L30.9447 63.8104C31.2408 65.7934 32.1974 67.5946 33.6371 68.8805L41.4169 75.8278C42.4619 76.7609 43.7792 77.2722 45.1398 77.2722H52.5586C53.9187 77.2722 55.2363 76.7609 56.2815 75.8278L64.0614 68.8805C65.5014 67.5949 66.4576 65.7937 66.7537 63.8104L67.1476 61.174H70.6557C72.6629 61.174 74.2902 59.4303 74.2902 57.2793V52.0867C74.2899 49.936 72.6624 48.192 70.6554 48.192Z" fill="#F0C087"/>
<path d="M73.2251 49.333C72.8961 48.9808 72.5045 48.6957 72.0699 48.4983C71.635 48.3013 71.1567 48.1923 70.6551 48.1923H69.084L68.232 30.0176H29.4651L28.6122 48.1923H27.0424C25.0352 48.1923 23.408 49.936 23.408 52.087V57.2796C23.408 59.4306 25.0352 61.1743 27.0424 61.1743H30.5508L30.9447 63.8107C31.2408 65.794 32.1974 67.5949 33.6371 68.8808L41.4166 75.8278C42.4619 76.7612 43.7789 77.2725 45.1395 77.2725H48.2028L44.8737 66.5704C44.2971 64.7165 44.003 62.7754 44.003 60.8218V46.7409C44.003 45.3609 45.0145 44.2797 46.297 44.1528C47.5182 44.0316 48.7139 43.7213 49.819 43.1915C52.8122 44.628 56.4938 44.6319 59.4919 43.2003L60.1662 47.527C60.8097 51.6573 64.145 54.6836 68.0526 54.6836H72.3518C73.0316 54.6836 73.6736 54.5178 74.2896 54.2813V52.0873C74.2899 51.0112 73.8827 50.0378 73.2251 49.333Z" fill="#E6AF78"/>
<path d="M77.9242 29.4981C77.9242 26.6212 76.0949 24.2237 73.6216 23.5069C73.8905 22.7897 74.0475 22.0103 74.0475 21.1895C74.0475 17.7479 71.4441 14.9581 68.2324 14.9581C68.1139 14.9581 68.0037 14.9879 67.8869 14.9955C67.0956 12.5613 64.9583 10.8039 62.4172 10.8039C61.793 10.8039 61.2011 10.9284 60.6415 11.1306C59.4004 9.66434 57.6258 8.72673 55.6331 8.72673C55.1191 8.72673 54.6232 8.79991 54.1421 8.91559C52.7548 7.52011 50.9017 6.6496 48.8489 6.6496C46.7961 6.6496 44.9427 7.52011 43.5557 8.91559C43.0746 8.7996 42.5784 8.72673 42.0647 8.72673C40.215 8.72673 38.5422 9.52467 37.3181 10.8115C37.2844 10.8109 37.2527 10.8039 37.2187 10.8039C34.6776 10.8039 32.5403 12.5616 31.7489 14.9955C31.6322 14.9879 31.5217 14.9581 31.4035 14.9581C28.1918 14.9581 25.5884 17.7479 25.5884 21.1895C25.5884 22.01 25.7454 22.7894 26.014 23.5069C23.541 24.2237 21.7117 26.6212 21.7117 29.4981C21.7117 31.1013 22.2925 32.5478 23.2208 33.6524C22.2925 34.7564 21.7117 36.2035 21.7117 37.8066C21.7117 40.113 22.8949 42.0988 24.6352 43.1709C24.7217 45.9576 26.8434 48.1923 29.4652 48.1923H31.5835C32.5307 48.1923 33.3394 47.4581 33.4955 46.4568L34.8482 37.7602C34.9935 37.7717 35.1324 37.8069 35.2803 37.8069C37.3056 37.8069 39.0848 36.695 40.1261 35.0123C41.1674 36.695 42.9468 37.8069 44.9719 37.8069C46.9969 37.8069 48.7764 36.695 49.8177 35.0123C50.859 36.695 52.6384 37.8069 54.6635 37.8069C56.6885 37.8069 58.4679 36.695 59.5092 35.0123C60.5505 36.695 62.33 37.8069 64.355 37.8069C64.5029 37.8069 64.6418 37.772 64.7871 37.7602L66.1398 46.4568C66.2957 47.4584 67.1043 48.1923 68.0519 48.1923H70.6547C73.3309 48.1923 75.5005 45.8671 75.5005 42.9996C75.5005 42.9459 75.4872 42.8958 75.4857 42.8423C76.9569 41.718 77.9237 39.8926 77.9237 37.8069C77.9237 36.2038 77.3428 34.757 76.4145 33.6527C77.3434 32.5478 77.9242 31.1013 77.9242 29.4981Z" fill="#694B4B"/>
<path d="M47.4302 33.2822C45.1586 32.4342 43.5186 30.1439 43.5186 27.421C43.5186 25.8178 44.0994 24.371 45.0277 23.2667C44.0994 22.1627 43.5186 20.7156 43.5186 19.1124C43.5186 16.2355 45.3479 13.838 47.8212 13.1212C47.5523 12.404 47.3956 11.6246 47.3956 10.8039C47.3956 9.20313 47.9751 7.75876 48.9005 6.65506C48.8829 6.65506 48.8667 6.6496 48.8492 6.6496C46.7963 6.6496 44.943 7.52011 43.556 8.91559C43.0749 8.7996 42.5787 8.72673 42.065 8.72673C40.2153 8.72673 38.5425 9.52467 37.3184 10.8115C37.2847 10.8109 37.2529 10.8039 37.2189 10.8039C34.6779 10.8039 32.5406 12.5616 31.7492 14.9955C31.6325 14.9879 31.522 14.9581 31.4038 14.9581C28.1921 14.9581 25.5887 17.7479 25.5887 21.1895C25.5887 22.01 25.7457 22.7894 26.0143 23.5069C23.541 24.2237 21.7117 26.6212 21.7117 29.4981C21.7117 31.1013 22.2925 32.5478 23.2208 33.6524C22.2925 34.7564 21.7117 36.2035 21.7117 37.8066C21.7117 40.113 22.8949 42.0988 24.6352 43.1709C24.7217 45.9576 26.8434 48.1923 29.4652 48.1923H31.5835C32.5307 48.1923 33.3394 47.4581 33.4955 46.4568L34.8482 37.7602C34.9935 37.7717 35.1324 37.8069 35.2803 37.8069C37.3056 37.8069 39.0848 36.695 40.1261 35.0123C41.1674 36.695 42.9468 37.8069 44.9719 37.8069C46.3093 37.8069 47.5155 37.2889 48.497 36.4746C47.8331 35.7337 47.3948 34.763 47.3948 33.6527C47.3953 33.5254 47.4194 33.4061 47.4302 33.2822Z" fill="#5A4146"/>
<path d="M75.5011 68.9634C75.5011 84.6714 63.5076 97.5238 48.8487 97.5238C39.4677 97.5238 31.1971 92.247 26.4439 84.3395L19.271 86.7045C25.0872 97.7934 36.157 105.313 48.8487 105.313C59.6606 105.313 69.2853 99.8444 75.5011 91.3743V68.9634Z" fill="#F88448"/>
<path d="M136.075 118.294H63.3864C59.3719 118.294 56.1177 114.807 56.1177 110.505V63.7704C56.1177 59.4685 59.3719 55.9813 63.3864 55.9813H136.075C140.089 55.9813 143.343 59.4685 143.343 63.7704V110.505C143.343 114.807 140.089 118.294 136.075 118.294Z" fill="#D5DCED"/>
<path d="M114.268 136.469L109.983 102.03C109.662 99.4497 107.609 97.5231 105.18 97.5231H94.2815C91.8529 97.5231 89.7989 99.4497 89.4779 102.03L85.1929 136.469H114.268Z" fill="#AFB9D2"/>
<path d="M99.7306 87.1377C102.407 87.1377 104.576 84.8128 104.576 81.945C104.576 79.0772 102.407 76.7523 99.7306 76.7523C97.0543 76.7523 94.8848 79.0772 94.8848 81.945C94.8848 84.8128 97.0543 87.1377 99.7306 87.1377Z" fill="white"/>
<path d="M136.075 120.729C141.335 120.729 145.615 116.142 145.615 110.505V63.7703C145.615 58.1331 141.335 53.5471 136.075 53.5471H76.3188V52.3462C76.3188 50.7695 75.7983 49.3218 74.9333 48.1865C75.5751 47.3448 76.0227 46.3368 76.2143 45.2443C78.6457 43.7082 80.1956 40.8948 80.1956 37.8063C80.1956 36.3476 79.8451 34.9221 79.1883 33.652C79.8448 32.3819 80.1956 30.9567 80.1956 29.4977C80.1956 26.422 78.6579 23.6334 76.2735 22.0964C76.3038 21.7952 76.3188 21.4928 76.3188 21.1892C76.3188 16.8142 73.2774 13.1858 69.3412 12.6049C67.904 10.0171 65.2879 8.36961 62.417 8.36961C62.0484 8.36961 61.6761 8.39997 61.3032 8.46069C59.6997 7.06946 57.6967 6.29247 55.6328 6.29247C55.3572 6.29247 55.0809 6.30735 54.8009 6.33741C53.0771 4.96166 51.0021 4.21564 48.849 4.21564C46.6958 4.21564 44.6209 4.96166 42.8967 6.33741C42.6165 6.30765 42.3402 6.29247 42.0648 6.29247C39.9955 6.29247 38.0246 7.03849 36.4239 8.41211C33.8707 8.68508 31.5983 10.2582 30.2952 12.6053C26.3589 13.1858 23.3175 16.8142 23.3175 21.1892C23.3175 21.4925 23.3325 21.7952 23.3628 22.0964C20.9787 23.6334 19.4407 26.422 19.4407 29.4977C19.4407 30.9567 19.7912 32.3819 20.448 33.652C19.7912 34.9221 19.4407 36.3476 19.4407 37.8063C19.4407 40.8948 20.9906 43.7082 23.4223 45.2443C23.5291 45.854 23.7181 46.4364 23.9737 46.9792C22.4062 48.1746 21.3791 50.1321 21.3791 52.3459V56.5002C21.3791 60.1328 24.1369 63.0887 27.5274 63.0887H28.537L28.7022 64.1945C29.085 66.759 30.3212 69.0872 32.1834 70.7502L33.0096 71.488V78.3576C33.0096 79.1173 32.554 79.7783 31.8762 80.0015L14.8868 85.6032C10.6541 86.999 7.81019 91.125 7.81019 95.8707V126.084C7.81019 129.086 8.78094 131.849 10.4 134.036H5.23599C2.64734 134.035 0.541504 136.292 0.541504 139.066V144.258C0.541504 147.032 2.64734 149.289 5.23599 149.289H140.92C143.509 149.289 145.615 147.032 145.615 144.258V139.066C145.615 136.292 143.509 134.035 140.92 134.035H116.257L114.601 120.729H136.075ZM141.072 63.7703V110.505C141.072 113.458 138.83 115.861 136.075 115.861H114.268C114.176 115.861 114.087 115.868 113.998 115.879L112.234 101.708C111.765 97.9351 108.732 95.0895 105.18 95.0895H94.2816C90.7293 95.0895 87.6961 97.9351 87.2266 101.708L85.4633 115.879C85.3746 115.868 85.2845 115.861 85.1927 115.861H63.3863C60.6308 115.861 58.389 113.458 58.389 110.505V63.7703C58.389 60.8175 60.6308 58.4152 63.3863 58.4152H136.075C138.83 58.4155 141.072 60.8175 141.072 63.7703ZM77.765 134.035C77.7684 133.982 77.7727 133.928 77.7727 133.873V120.729H84.8598L83.2039 134.036H77.765V134.035ZM70.5859 53.5471L70.9854 50.8724C71.4563 51.1727 71.7759 51.7174 71.7759 52.3462V53.5471H70.5859ZM24.9087 32.023C24.4866 31.5208 23.9836 30.6752 23.9836 29.498C23.9836 27.802 25.0626 26.3044 26.608 25.8563C27.2342 25.6744 27.7584 25.2147 28.0474 24.5923C28.3369 23.9701 28.3641 23.2448 28.1225 22.5996C27.9482 22.1359 27.8601 21.6613 27.8601 21.1898C27.8601 19.1257 29.4049 17.4409 31.3209 17.3935C31.4175 17.4075 31.5147 17.419 31.6136 17.4254C32.6308 17.4879 33.5596 16.8251 33.8939 15.7964C34.3833 14.291 35.6838 13.272 37.1453 13.2389C37.1893 13.2423 37.2335 13.2444 37.2779 13.245C37.892 13.2529 38.4739 13.0057 38.9086 12.5488C39.7603 11.6537 40.8813 11.1606 42.0645 11.1606C42.3708 11.1606 42.6955 11.2031 43.0571 11.2899C43.7912 11.4669 44.5611 11.2426 45.1105 10.6899C46.1405 9.65427 47.4679 9.08374 48.849 9.08374C50.23 9.08374 51.5575 9.65427 52.5872 10.6903C53.1363 11.2429 53.9058 11.4675 54.6406 11.2902C55.0021 11.2028 55.3268 11.1609 55.6331 11.1609C56.9017 11.1609 58.0829 11.7311 58.9593 12.7662C59.5663 13.483 60.5118 13.7463 61.3675 13.4372C61.7387 13.3033 62.0824 13.238 62.4176 13.238C63.9086 13.238 65.2448 14.2661 65.7424 15.7961C66.0767 16.8245 67.0061 17.4901 68.0227 17.4251C68.1154 17.4193 68.2066 17.4084 68.3149 17.3932C70.2309 17.4403 71.7759 19.1254 71.7759 21.1895C71.7759 21.661 71.6878 22.1356 71.5139 22.5989C71.2719 23.2442 71.2991 23.9695 71.5887 24.592C71.8782 25.2144 72.4021 25.6744 73.0286 25.856C74.5734 26.3041 75.6527 27.8016 75.6527 29.4977C75.6527 30.6749 75.1492 31.5205 74.7276 32.0227C73.9492 32.9488 73.9492 34.3552 74.7276 35.2813C75.1498 35.7835 75.6527 36.6291 75.6527 37.8063C75.6527 39.404 74.6933 40.8359 73.2652 41.3688C72.2809 41.7365 71.6561 42.7752 71.7504 43.8877C71.7567 43.9624 71.7652 44.0365 71.7748 44.1102C71.7448 44.8493 71.262 45.4902 70.5799 45.6846C70.5071 45.7052 68.3347 45.7577 68.3347 45.7577L67.0285 37.3593C66.8352 36.1172 65.7874 35.2382 64.6183 35.3323C64.5129 35.3408 64.4098 35.3545 64.3061 35.3696L64.2928 35.3715C63.1288 35.3493 62.0521 34.7156 61.4029 33.6663C60.9819 32.9864 60.2715 32.5775 59.5099 32.5775C58.7485 32.5775 58.0376 32.9864 57.6168 33.666C56.9558 34.7341 55.8522 35.3718 54.6638 35.3718C53.4757 35.3718 52.3721 34.7341 51.7108 33.666C51.2897 32.9861 50.5794 32.5772 49.8177 32.5772C49.0564 32.5772 48.3455 32.9861 47.9247 33.6657C47.2636 34.7338 46.16 35.3715 44.9716 35.3715C43.7836 35.3715 42.6799 34.7338 42.0186 33.6657C41.5976 32.9858 40.8872 32.5768 40.1256 32.5768C39.3642 32.5768 38.6533 32.9858 38.2325 33.6654C37.5831 34.7147 36.5064 35.3484 35.3427 35.3706L35.3294 35.3687C35.2259 35.3535 35.1222 35.3399 35.0168 35.3314C33.848 35.2357 32.8002 36.1166 32.607 37.3584L31.301 45.7577C31.301 45.7577 29.1289 45.7055 29.0561 45.6846C28.3738 45.4902 27.8907 44.8487 27.8612 44.1096C27.8703 44.0359 27.8788 43.9624 27.885 43.8877C27.9794 42.7752 27.3546 41.7365 26.3702 41.3688C24.9422 40.8356 23.9828 39.404 23.9828 37.8063C23.9828 36.6291 24.4863 35.7835 24.9079 35.2813C25.6871 34.3555 25.6871 32.9491 24.9087 32.023ZM27.5269 58.2206C26.642 58.2206 25.9217 57.449 25.9217 56.5005V52.3462C25.9217 51.7177 26.2413 51.1727 26.7122 50.8724L27.8096 58.2206H27.5269ZM31.2761 50.6262H31.5835C33.6497 50.6262 35.396 49.0406 35.7363 46.8566L36.7886 40.089C38.0047 39.8424 39.1443 39.3001 40.1261 38.5101C41.5052 39.6199 43.1965 40.2405 44.9719 40.2405C46.7471 40.2405 48.4387 39.6196 49.8177 38.5101C51.1968 39.6199 52.8881 40.2405 54.6635 40.2405C56.4387 40.2405 58.1303 39.6196 59.5093 38.5101C60.4908 39.3001 61.6307 39.8421 62.8469 40.089L63.8992 46.8569C64.1471 48.4509 65.1462 49.7225 66.4703 50.2952L65.9849 53.5471H63.3861C58.1255 53.5471 53.8458 58.1334 53.8458 63.7703V74.5735C53.4369 74.7444 53 74.8373 52.5583 74.8373H45.1388C44.3115 74.8373 43.5059 74.5249 42.8704 73.9571L35.0905 67.0098C34.0722 66.1004 33.3964 64.8276 33.187 63.4251L31.2761 50.6262ZM33.2119 84.6546C35.8082 83.7987 37.5522 81.2679 37.5522 78.3576V75.5448L39.9624 77.6972C41.4128 78.9925 43.2512 79.7057 45.1394 79.7057H52.5588C52.9909 79.7057 53.4216 79.6663 53.8464 79.5922V95.2547C52.5135 95.4882 51.1585 95.6087 49.7985 95.6087C42.2209 95.6087 35.0749 91.8935 30.37 85.5919L33.2119 84.6546ZM12.3534 126.084V95.8704C12.3534 93.2753 13.9087 91.019 16.223 90.2557L25.7568 87.1125C31.2693 95.4833 40.2435 100.477 49.7985 100.477C51.1554 100.477 52.5084 100.374 53.8464 100.177V110.505C53.8464 116.143 58.1263 120.729 63.3866 120.729H73.2298V133.873C73.2298 133.928 73.2341 133.981 73.2374 134.035H60.8121V131.276C60.8121 125.639 56.5322 121.053 51.2719 121.053H27.0423C26.9587 121.053 26.891 120.98 26.891 120.891V105.312C26.891 103.968 25.8741 102.878 24.6194 102.878C23.3651 102.878 22.3479 103.968 22.3479 105.312V120.891C22.3479 123.665 24.4537 125.921 27.0423 125.921H41.7313V134.035H19.7736C15.6821 134.035 12.3534 130.468 12.3534 126.084ZM46.2745 134.035V125.922H51.2719C54.0274 125.922 56.2692 128.324 56.2692 131.277V134.036H46.2745V134.035ZM141.072 139.066V144.258C141.072 144.348 141.004 144.421 140.921 144.421H5.23599C5.1524 144.421 5.08468 144.348 5.08468 144.258V139.066C5.08468 138.976 5.1524 138.904 5.23599 138.904H140.92C141.004 138.903 141.072 138.976 141.072 139.066ZM87.7873 134.035L91.7295 102.352C91.8995 100.987 92.9963 99.9576 94.2816 99.9576H105.18C106.465 99.9576 107.562 100.987 107.732 102.352L111.674 134.035H87.7873Z" fill="black"/>
<path d="M99.7307 89.572C103.655 89.572 106.848 86.1507 106.848 81.9451C106.848 77.7395 103.655 74.3182 99.7307 74.3182C95.806 74.3182 92.6133 77.7395 92.6133 81.9451C92.6133 86.1507 95.806 89.572 99.7307 89.572ZM99.7307 79.1866C101.15 79.1866 102.305 80.4242 102.305 81.9454C102.305 83.4666 101.15 84.7042 99.7307 84.7042C98.3111 84.7042 97.1562 83.4666 97.1562 81.9454C97.1562 80.4242 98.3111 79.1866 99.7307 79.1866Z" fill="black"/>
</g>
<defs>
<clipPath id="clip0_132_1894">
<rect width="119.472" height="119.472" fill="white" transform="translate(0.541748 0.224976)"/>
</clipPath>
</defs>
</svg>
