<svg width="121" height="121" viewBox="0 0 121 121" fill="none" xmlns="http://www.w3.org/2000/svg">
<g clip-path="url(#clip0_132_1913)">
<path d="M34.5879 102.63V17.6924H87.7904V102.63" fill="white"/>
<path d="M87.7904 17.6924H34.5879V102.63H87.7904V17.6924Z" stroke="#3D3D3D" stroke-width="1.40556" stroke-miterlimit="10"/>
<path d="M103.658 17.6924H42.0547V102.63H103.658V17.6924Z" fill="#8DCEA8"/>
<path d="M103.658 17.6924H42.0547V102.63H103.658V17.6924Z" stroke="#3D3D3D" stroke-width="1.40556" stroke-miterlimit="10"/>
<path d="M107.205 102.63H104.591C103.938 102.63 103.658 102.723 103.658 101.976V18.7192C103.658 18.0658 103.844 17.6924 104.591 17.6924H107.205C109.258 17.6924 111.125 19.1858 111.125 21.2393V99.4562C111.125 101.603 109.258 102.63 107.205 102.63Z" fill="#53AF80"/>
<path d="M107.205 102.63H104.591C103.938 102.63 103.658 102.723 103.658 101.976V18.7192C103.658 18.0658 103.844 17.6924 104.591 17.6924H107.205C109.258 17.6924 111.125 19.1858 111.125 21.2393V99.4562C111.125 101.603 109.258 102.63 107.205 102.63Z" stroke="#3D3D3D" stroke-width="1.40556" stroke-miterlimit="10"/>
<path d="M38.321 17.6924V102.63" stroke="#3D3D3D" stroke-width="1.40556" stroke-miterlimit="10"/>
<path d="M58.8556 17.6924H55.1221V103.563H58.8556V17.6924Z" fill="#3D3D3D"/>
<path d="M92.6439 103.003C92.6439 103.003 92.1772 108.977 95.6307 111.963C99.0842 114.95 103.284 116.257 103.284 116.257" stroke="#3D3D3D" stroke-width="1.40556" stroke-miterlimit="10" stroke-linecap="round"/>
<path d="M94.3237 31.6931H69.1226V50.3606H94.3237V31.6931Z" fill="white"/>
<path d="M95.2571 31.6931H69.1226V49.4273H95.2571V31.6931Z" stroke="#3D3D3D" stroke-width="1.40556" stroke-miterlimit="10"/>
<path d="M74.7229 36.36H89.6569" stroke="#3D3D3D" stroke-width="1.40556" stroke-miterlimit="10"/>
<path d="M74.7229 40.0934H89.6569" stroke="#3D3D3D" stroke-width="1.40556" stroke-miterlimit="10"/>
<path d="M79.3896 43.827H84.9899" stroke="#3D3D3D" stroke-width="1.40556" stroke-miterlimit="10"/>
<path d="M22.4538 31.6931H14.9868V94.2294H22.4538V31.6931Z" fill="#8DCEA8"/>
<path d="M22.454 31.6931H18.7205V94.2294H22.454V31.6931Z" fill="#53AF80"/>
<path d="M21.5205 31.6931H16.387C15.6403 31.6931 14.8936 32.0665 14.8936 32.8132V94.2294H22.3606V32.8132C22.4539 32.0665 22.2672 31.6931 21.5205 31.6931Z" stroke="#3D3D3D" stroke-width="1.40556" stroke-miterlimit="10"/>
<path d="M20.307 100.763H17.7869C16.3868 100.763 15.0801 99.3629 15.0801 97.9628V94.2293H22.5471V97.9628C22.4538 99.3629 21.7071 100.763 20.307 100.763Z" fill="white"/>
<path d="M19.6537 100.763H17.7869C16.2935 100.763 14.9868 99.5496 14.9868 97.9628V94.2293H22.4538V97.9628C22.4538 99.5496 21.1471 100.763 19.6537 100.763Z" stroke="#3D3D3D" stroke-width="1.40556" stroke-miterlimit="10"/>
<path d="M14.9868 90.4958H22.4538" stroke="#3D3D3D" stroke-width="1.40556" stroke-miterlimit="10"/>
<path d="M14.9868 87.6957H22.4538" stroke="#3D3D3D" stroke-width="1.40556" stroke-miterlimit="10"/>
<path d="M22.5472 32.8132L18.7204 21.3326L14.8936 32.8132" stroke="#3D3D3D" stroke-width="1.40556" stroke-miterlimit="10" stroke-linecap="round" stroke-linejoin="round"/>
</g>
<defs>
<clipPath id="clip0_132_1913">
<rect width="119.472" height="119.472" fill="white" transform="translate(0.986084 0.891663)"/>
</clipPath>
</defs>
</svg>
