<svg width="121" height="121" viewBox="0 0 121 121" fill="none" xmlns="http://www.w3.org/2000/svg">
<path d="M26.6764 86.429H4.27539V4.29181H116.281V86.429H101.347H26.6764Z" fill="#007E37"/>
<path d="M4.27539 4.29181V86.429H19.2094H26.6764H93.8796H101.347H108.814V4.29181H4.27539Z" fill="#00BD53"/>
<path d="M56.5444 75.2285H95.7462C100.9 75.2285 105.08 71.0488 105.08 65.8947V24.8261C105.08 19.672 100.9 15.4924 95.7462 15.4924H24.8096C19.6555 15.4924 15.4758 19.672 15.4758 24.8261V65.8947C15.4758 70.4048 18.6754 74.1682 22.9279 75.0381" fill="#CCCCCC"/>
<path d="M97.613 65.8947V24.8261C97.613 19.672 93.4333 15.4924 88.2792 15.4924H24.8096C19.6555 15.4924 15.4758 19.672 15.4758 24.8261V65.8947C15.4758 70.4048 18.6754 74.1682 22.9279 75.0381L56.5444 75.2285H88.2792C93.4333 75.2285 97.613 71.0488 97.613 65.8947Z" fill="#E6E6E6"/>
<path d="M105.08 71.495H90.1458V78.962H105.08V71.495Z" fill="#A67C52"/>
<path d="M101.346 71.495H90.1458V78.962H101.346V71.495Z" fill="#C69C6D"/>
<path d="M101.346 78.962H93.8792V101.363H101.346V78.962Z" fill="#8C6239"/>
<path d="M97.6127 78.962H93.8792V101.363H97.6127V78.962Z" fill="#A67C52"/>
<path d="M108.813 101.363H86.4121V108.83H108.813V101.363Z" fill="#613516"/>
<path d="M105.08 101.363H86.4121V108.83H105.08V101.363Z" fill="#81461E"/>
<path d="M112.547 108.83H82.679V116.297H112.547V108.83Z" fill="#482A0E"/>
<path d="M108.814 108.83H82.679V116.297H108.814V108.83Z" fill="#562E08"/>
<path d="M50.9441 86.429L52.8109 108.83L39.7436 101.363L24.8096 108.83L28.5431 86.429H50.9441Z" fill="#94090D"/>
<path d="M36.0097 101.363L37.7514 102.358L39.7432 101.363L48.8903 106.59L47.2102 86.429H28.5427L25.1489 106.793L36.0097 101.363Z" fill="#D40D12"/>
<path d="M23.8986 67.7614C26.206 61.2371 32.4278 56.5609 39.7437 56.5609C49.0233 56.5609 56.5444 64.0821 56.5444 73.3617C56.5444 82.6413 49.0233 90.1625 39.7437 90.1625C30.464 90.1625 22.9429 82.6413 22.9429 73.3617C22.9429 71.3979 23.2789 69.5124 23.8986 67.7614Z" fill="#B96E16"/>
<path d="M36.9006 56.8055C30.8504 57.8378 25.8998 62.0996 23.8986 67.7596C23.2789 69.5125 22.9429 71.3979 22.9429 73.3617C22.9429 81.6837 29.0005 88.5758 36.9435 89.9105C44.8866 88.5758 50.9442 81.6837 50.9442 73.3617C50.9442 65.0248 44.8642 58.1234 36.9006 56.8055Z" fill="#F7931E"/>
<path d="M39.7432 82.6954C44.8981 82.6954 49.077 78.5166 49.077 73.3617C49.077 68.2068 44.8981 64.0279 39.7432 64.0279C34.5883 64.0279 30.4094 68.2068 30.4094 73.3617C30.4094 78.5166 34.5883 82.6954 39.7432 82.6954Z" fill="#BC842C"/>
<path d="M37.8764 82.507C42.0004 82.507 45.3435 78.4125 45.3435 73.3618C45.3435 68.311 42.0004 64.2166 37.8764 64.2166C33.7525 64.2166 30.4094 68.311 30.4094 73.3618C30.4094 78.4125 33.7525 82.507 37.8764 82.507Z" fill="#FBB03B"/>
<path d="M93.8796 84.5623H51.9934V88.2958H93.8796V84.5623Z" fill="black"/>
<path d="M116.28 88.2957H101.346V84.5622H114.413V6.15856H6.14171V84.5622H26.676V88.2957H4.27496C3.24264 88.2957 2.4082 87.4594 2.4082 86.4289V4.2918C2.4082 3.26135 3.24264 2.42505 4.27496 2.42505H116.28C117.312 2.42505 118.147 3.26135 118.147 4.2918V86.4289C118.147 87.4594 117.312 88.2957 116.28 88.2957Z" fill="black"/>
<path d="M39.7435 92.0292C29.4502 92.0292 21.0759 83.655 21.0759 73.3617C21.0759 71.2299 21.4325 69.1354 22.1362 67.1398H22.1381C24.7702 59.6952 31.8471 54.6942 39.7435 54.6942C50.0367 54.6942 58.411 63.0684 58.411 73.3617C58.411 83.655 50.0367 92.0292 39.7435 92.0292ZM25.6588 68.3831C25.095 69.9791 24.8094 71.6536 24.8094 73.3617C24.8094 81.5959 31.5092 88.2957 39.7435 88.2957C47.9777 88.2957 54.6775 81.5959 54.6775 73.3617C54.6775 65.1274 47.9777 58.4277 39.7435 58.4277C33.4245 58.4277 27.7645 62.4281 25.6588 68.3831Z" fill="black"/>
<path d="M24.8093 110.697C24.4173 110.697 24.0271 110.574 23.7004 110.331C23.1348 109.915 22.8529 109.215 22.9668 108.522L26.7003 86.121L30.3834 86.7351L27.2547 105.522L38.9089 99.6941C39.467 99.416 40.1297 99.4347 40.6692 99.7427L50.6564 105.449L49.0846 86.5858L52.8031 86.2759L54.6699 108.677C54.7278 109.368 54.3973 110.034 53.813 110.406C53.2306 110.779 52.4895 110.798 51.8847 110.452L39.6855 103.482L25.6456 110.503C25.3805 110.631 25.093 110.697 24.8093 110.697Z" fill="black"/>
<path d="M39.7435 84.5622C33.5664 84.5622 28.543 79.5387 28.543 73.3617C28.543 67.1846 33.5664 62.1611 39.7435 62.1611C45.9206 62.1611 50.944 67.1846 50.944 73.3617C50.944 79.5387 45.9206 84.5622 39.7435 84.5622ZM39.7435 65.8946C35.6254 65.8946 32.2765 69.2436 32.2765 73.3617C32.2765 77.4797 35.6254 80.8287 39.7435 80.8287C43.8615 80.8287 47.2105 77.4797 47.2105 73.3617C47.2105 69.2436 43.8615 65.8946 39.7435 65.8946Z" fill="black"/>
<path d="M22.5544 76.8675C17.3723 75.8072 13.6089 71.1926 13.6089 65.8947V24.8261C13.6089 18.649 18.6323 13.6256 24.8094 13.6256H95.746C101.923 13.6256 106.947 18.649 106.947 24.8261V65.8947C106.947 68.342 106.172 70.6661 104.706 72.6169L101.72 70.3749C102.696 69.0757 103.213 67.5262 103.213 65.8947V24.8261C103.213 20.7081 99.8641 17.3591 95.746 17.3591H24.8094C20.6913 17.3591 17.3424 20.7081 17.3424 24.8261V65.8947C17.3424 69.4266 19.8494 72.503 23.3011 73.2105L22.5544 76.8675Z" fill="black"/>
<path d="M90.1457 73.3618H56.5442V77.0953H90.1457V73.3618Z" fill="black"/>
<path d="M71.4782 24.8262H49.0771V28.5597H71.4782V24.8262Z" fill="black"/>
<path d="M80.812 32.2931H39.7434V36.0266H80.812V32.2931Z" fill="black"/>
<path d="M71.4782 39.7602H49.0771V43.4937H71.4782V39.7602Z" fill="black"/>
<path d="M112.547 118.164H82.679C81.6467 118.164 80.8123 117.328 80.8123 116.297V108.83C80.8123 107.8 81.6467 106.963 82.679 106.963H112.547C113.579 106.963 114.414 107.8 114.414 108.83V116.297C114.414 117.328 113.579 118.164 112.547 118.164ZM84.5458 114.43H110.68V110.697H84.5458V114.43Z" fill="black"/>
<path d="M108.813 110.697H86.4124C85.3801 110.697 84.5457 109.861 84.5457 108.83V101.363C84.5457 100.333 85.3801 99.4963 86.4124 99.4963H108.813C109.846 99.4963 110.68 100.333 110.68 101.363V108.83C110.68 109.861 109.846 110.697 108.813 110.697ZM88.2792 106.963H106.947V103.23H88.2792V106.963Z" fill="black"/>
<path d="M101.346 103.23H93.8794C92.8471 103.23 92.0127 102.393 92.0127 101.363V78.962C92.0127 77.9315 92.8471 77.0952 93.8794 77.0952H101.346C102.379 77.0952 103.213 77.9315 103.213 78.962V101.363C103.213 102.393 102.379 103.23 101.346 103.23ZM95.7462 99.4963H99.4797V80.8287H95.7462V99.4963Z" fill="black"/>
<path d="M105.08 80.8288H90.1458C89.1135 80.8288 88.2791 79.9924 88.2791 78.962V71.495C88.2791 70.4645 89.1135 69.6282 90.1458 69.6282H105.08C106.112 69.6282 106.947 70.4645 106.947 71.495V78.962C106.947 79.9924 106.112 80.8288 105.08 80.8288ZM92.0126 77.0952H103.213V73.3617H92.0126V77.0952Z" fill="black"/>
</svg>
