<svg width="121" height="120" viewBox="0 0 121 120" fill="none" xmlns="http://www.w3.org/2000/svg">
<path d="M98.83 9.55881H43.8859C40.4753 5.03567 35.0767 2.0918 28.9873 2.0918C18.6941 2.0918 10.3198 10.4661 10.3198 20.7593V30.0931C10.3198 33.9983 13.3439 37.1774 17.1689 37.4985C18.149 39.5799 19.6517 41.3627 21.5203 42.6694V43.6383L9.50403 47.243C5.52597 48.4358 2.85278 52.0293 2.85278 56.1828V69.2949H32.7208V117.831H118.591V29.3203L98.83 9.55881ZM99.924 15.9319L112.218 28.2263H99.924V15.9319ZM42.0546 31.9599V26.8785C43.1653 27.5263 43.9214 28.7173 43.9214 30.0931C43.9214 31.5006 43.1299 32.7122 41.9781 33.3487C42.0266 32.8914 42.0546 32.4284 42.0546 31.9599ZM28.9873 5.8253C37.2216 5.8253 43.9214 12.5251 43.9214 20.7593V23.664C42.8181 23.0218 41.5543 22.6261 40.1879 22.6261C36.893 22.6261 33.7046 21.6591 30.9642 19.8334L28.9873 18.5155L27.0104 19.8334C24.27 21.6591 21.0816 22.6261 17.7868 22.6261C16.4203 22.6261 15.1566 23.0218 14.0533 23.6659V20.7593C14.0533 12.5251 20.7531 5.8253 28.9873 5.8253ZM14.0533 30.095C14.0533 28.7192 14.8093 27.5282 15.9201 26.8804V31.9599C15.9201 32.4303 15.9481 32.8932 15.9966 33.3487C14.8448 32.714 14.0533 31.5006 14.0533 30.095ZM19.6536 31.9599V26.2644C22.9801 25.9601 26.176 24.855 28.9873 23.0032C31.7987 24.855 34.9945 25.9601 38.3211 26.2644V31.9599C38.3211 37.1065 34.134 41.2936 28.9873 41.2936C23.8407 41.2936 19.6536 37.1065 19.6536 31.9599ZM28.9873 49.3823L25.321 44.4932C26.4859 44.8349 27.7142 45.0271 28.9873 45.0271C30.2605 45.0271 31.4888 44.8349 32.6536 44.4932L28.9873 49.3823ZM35.2988 47.1907L39.0865 48.3275L34.3766 56.5693L31.3208 52.4941L35.2988 47.1907ZM22.6758 47.1907L26.6539 52.4941L23.598 56.5693L18.8882 48.3257L22.6758 47.1907ZM6.58629 56.1828C6.58629 53.6907 8.18983 51.5346 10.5774 50.8197L15.2182 49.4271L23.1761 63.353L28.9873 55.606L34.7985 63.3549L42.7565 49.4289L47.3973 50.8215C49.7848 51.5346 51.3884 53.6907 51.3884 56.1828V65.5614H43.9214V58.0944H40.1879V65.5614H17.7868V58.0944H14.0533V65.5614H6.58629V56.1828ZM36.4543 114.097V69.2949H55.1219V56.1828C55.1219 52.0293 52.4487 48.4358 48.4706 47.243L36.4543 43.6383V42.6694C38.323 41.3627 39.8276 39.5799 40.8057 37.4985C44.6307 37.1774 47.6549 33.9983 47.6549 30.0931V20.7593C47.6549 18.1048 47.0892 15.581 46.0849 13.2923H96.1905V31.9599H114.858V114.097H36.4543Z" fill="black"/>
<path d="M91.9679 78.0238L93.7768 76.2149L91.1372 73.5753L89.3284 75.3842C86.1101 72.7484 81.9995 71.1616 77.523 71.1616C73.0465 71.1616 68.9359 72.7484 65.7177 75.3842L63.9088 73.5753L61.2692 76.2149L63.0781 78.0238C60.4422 81.2421 58.8555 85.3527 58.8555 89.8292C58.8555 94.3056 60.4422 98.4162 63.0781 101.635L61.2692 103.443L63.9088 106.083L65.7177 104.274C68.9359 106.91 73.0465 108.497 77.523 108.497C81.9995 108.497 86.1101 106.91 89.3284 104.274L91.1372 106.083L93.7768 103.443L91.9679 101.635C94.6038 98.4162 96.1905 94.3056 96.1905 89.8292C96.1905 85.3527 94.6038 81.2421 91.9679 78.0238ZM77.523 74.8951C80.969 74.8951 84.135 76.0786 86.6664 78.0462L77.523 87.1896L68.3796 78.0462C70.911 76.0786 74.077 74.8951 77.523 74.8951ZM62.589 89.8292C62.589 86.3831 63.7725 83.2171 65.7401 80.6858L74.8834 89.8292L65.7401 98.9725C63.7725 96.4412 62.589 93.2752 62.589 89.8292ZM77.523 104.763C74.077 104.763 70.911 103.58 68.3796 101.612L77.523 92.4687L86.6664 101.612C84.135 103.58 80.969 104.763 77.523 104.763ZM80.1626 89.8292L89.306 80.6858C91.2735 83.2171 92.457 86.3831 92.457 89.8292C92.457 93.2752 91.2735 96.4412 89.306 98.9725L80.1626 89.8292Z" fill="black"/>
<path d="M95.6436 37.0132L93.004 34.3736L91.238 36.1396C87.8237 32.4322 82.9478 30.0931 77.523 30.0931C67.2297 30.0931 58.8555 38.4674 58.8555 48.7607C58.8555 59.054 67.2297 67.4282 77.523 67.4282C87.8163 67.4282 96.1905 59.054 96.1905 48.7607C96.1905 45.2456 95.1956 41.9676 93.5005 39.1562L95.6436 37.0132ZM92.457 48.7607C92.457 56.9949 85.7572 63.6947 77.523 63.6947C69.2888 63.6947 62.589 56.9949 62.589 48.7607C62.589 40.5264 69.2888 33.8266 77.523 33.8266C81.9173 33.8266 85.8637 35.7475 88.5984 38.7791L75.6562 51.7213L69.509 45.5741L66.8694 48.2137L75.6562 57.0005L90.7676 41.8892C91.841 43.9482 92.457 46.2816 92.457 48.7607Z" fill="black"/>
<path d="M105.524 63.6946C102.437 63.6946 99.9241 66.2072 99.9241 69.2948C99.9241 72.3825 102.437 74.8951 105.524 74.8951C108.612 74.8951 111.125 72.3825 111.125 69.2948C111.125 66.2072 108.612 63.6946 105.524 63.6946ZM105.524 71.1616C104.496 71.1616 103.658 70.3234 103.658 69.2948C103.658 68.2663 104.496 67.4281 105.524 67.4281C106.553 67.4281 107.391 68.2663 107.391 69.2948C107.391 70.3234 106.553 71.1616 105.524 71.1616Z" fill="black"/>
<path d="M107.391 56.2275H103.658V59.961H107.391V56.2275Z" fill="black"/>
<path d="M107.391 48.7606H103.658V52.4941H107.391V48.7606Z" fill="black"/>
<path d="M107.391 41.2935H103.658V45.027H107.391V41.2935Z" fill="black"/>
<path d="M107.391 93.5626H103.658V97.2961H107.391V93.5626Z" fill="black"/>
<path d="M107.391 86.0957H103.658V89.8292H107.391V86.0957Z" fill="black"/>
<path d="M107.391 78.6287H103.658V82.3622H107.391V78.6287Z" fill="black"/>
</svg>
