<svg width="121" height="121" viewBox="0 0 121 121" fill="none" xmlns="http://www.w3.org/2000/svg">
<path d="M57.0112 9.94543C27.8898 9.94543 4.27539 33.5599 4.27539 62.7746C4.27539 91.9893 27.8898 115.51 57.0112 115.51C86.1325 115.51 109.747 91.8959 109.747 62.7746C109.747 33.6532 86.1325 9.94543 57.0112 9.94543ZM57.0112 109.63C31.1566 109.63 10.1557 88.6291 10.1557 62.7746C10.1557 36.92 31.1566 15.8257 57.0112 15.8257C82.8657 15.8257 103.867 36.8267 103.867 62.6812C103.867 88.5358 82.8657 109.63 57.0112 109.63Z" fill="#56544D"/>
<path d="M57.0112 9.94543C27.8898 9.94543 4.27539 33.5599 4.27539 62.7746C4.27539 91.9893 27.8898 115.51 57.0112 115.51C86.1325 115.51 109.747 91.8959 109.747 62.7746C109.747 33.6532 86.1325 9.94543 57.0112 9.94543Z" fill="white"/>
<path d="M57.0111 116.63C27.3297 116.63 3.15527 92.4559 3.15527 62.7745C3.15527 32.9998 27.3297 8.82532 57.0111 8.82532C86.6925 8.82532 110.867 33.0931 110.867 62.7745C110.867 92.4559 86.6925 116.63 57.0111 116.63ZM57.0111 11.1588C28.5431 11.1588 5.39538 34.3065 5.39538 62.7745C5.39538 91.2425 28.5431 114.297 56.9178 114.297C85.2924 114.297 108.44 91.1491 108.44 62.7745C108.533 34.3065 85.4791 11.1588 57.0111 11.1588Z" fill="#62355C"/>
<path d="M57.0112 17.2257C31.9034 17.2257 11.4624 37.6667 11.4624 62.7745C11.4624 87.8823 31.9034 108.23 57.0112 108.23C82.119 108.23 102.56 87.789 102.56 62.6812C102.56 37.5733 82.119 17.2257 57.0112 17.2257Z" fill="#938993"/>
<g opacity="0.2">
<path d="M109.747 61.0945C109.187 43.3604 99.9465 27.8663 86.1325 18.7192C79.7856 23.2928 75.6787 30.8531 75.6787 39.2535V61.0012C75.6787 62.2146 76.6121 63.148 77.8255 63.148H99.5732C103.213 63.148 106.667 62.4013 109.747 61.0945Z" fill="#5A3156"/>
</g>
<path d="M57.0109 109.35C31.2497 109.35 10.342 88.4424 10.342 62.7746C10.342 37.0134 31.343 16.1057 57.0109 16.1057C82.6787 16.1057 103.68 37.0133 103.68 62.6812C103.68 88.4424 82.7721 109.35 57.0109 109.35ZM57.0109 18.4392C32.5564 18.4392 12.6755 38.3201 12.6755 62.7746C12.6755 87.229 32.5564 107.017 57.0109 107.017C81.4653 107.017 101.346 87.1357 101.346 62.6812C101.346 38.2267 81.4653 18.4392 57.0109 18.4392Z" fill="#62355C"/>
<path d="M77.6385 82.7488C76.8918 82.7488 76.0518 82.4688 75.3984 82.0021L54.8641 65.4813C54.0241 64.8279 53.5574 63.8012 53.5574 62.7745V25.2528C53.5574 23.2927 55.1441 21.7059 57.1042 21.7059C59.0643 21.7059 60.651 23.2927 60.651 25.2528V61.0944L79.8786 76.4951C81.372 77.7085 81.652 79.9486 80.4386 81.442C79.6919 82.2821 78.6652 82.7488 77.6385 82.7488Z" fill="#D4B52A"/>
<path d="M77.6385 82.7488C76.8918 82.7488 76.0518 82.4688 75.3984 82.0021L54.8641 65.4813C54.0241 64.8279 53.5574 63.8012 53.5574 62.7745V25.2528C53.5574 23.2927 55.1441 21.7059 57.1042 21.7059C59.0643 21.7059 60.651 23.2927 60.651 25.2528V61.0944L79.8786 76.4951C81.372 77.7085 81.652 79.9486 80.4386 81.442C79.6919 82.2821 78.6652 82.7488 77.6385 82.7488Z" fill="white"/>
<g opacity="0.2">
<path d="M60.7442 59.601V51.7607C59.6242 51.3873 58.5041 51.1073 57.2907 51.1073C55.984 51.1073 54.8639 51.3873 53.7439 51.7607V61.1878C53.7439 62.2145 54.2106 63.2412 55.0506 63.8946L62.5176 69.8682C64.5711 68.6548 66.1578 66.6947 66.9045 64.3613L60.7442 59.601Z" fill="#5A3156"/>
</g>
<path d="M77.6385 83.9622C76.6118 83.9622 75.5851 83.5889 74.745 83.0288L54.1174 66.4147C52.9974 65.5747 52.344 64.1746 52.344 62.7746V25.2528C52.344 22.6394 54.4908 20.5859 57.0109 20.5859C59.531 20.5859 61.7711 22.7327 61.7711 25.2528V60.5345L80.6253 75.5618C81.5587 76.3085 82.212 77.4286 82.3054 78.7353C82.4921 79.9487 82.1187 81.2554 81.2787 82.1888C80.3453 83.3089 79.0386 83.9622 77.6385 83.9622ZM57.1042 22.9194C55.7975 22.9194 54.7708 23.9461 54.7708 25.2528V62.7746C54.7708 63.5213 55.0508 64.1746 55.6108 64.548L76.1451 81.0688C76.5185 81.3488 77.1718 81.5354 77.6385 81.5354C78.3852 81.5354 79.0386 81.1621 79.5986 80.6021C79.9719 80.1354 80.1586 79.5753 80.0653 78.922C79.9719 78.2686 79.6919 77.7086 79.2252 77.3352L59.9043 62.0279C59.6243 61.8412 59.4377 61.4678 59.4377 61.0945V25.2528C59.4377 23.9461 58.4109 22.9194 57.1042 22.9194Z" fill="#62355C"/>
<path d="M116.28 30.6664C116.094 44.107 104.706 54.8408 91.1725 54.8408H69.4248C68.2115 54.8408 67.2781 53.9074 67.2781 52.694V30.853C67.2781 17.4124 77.9186 6.02521 91.4525 5.7452C105.267 5.55853 116.467 16.8524 116.28 30.6664Z" fill="#EA7BB1"/>
<path d="M89.119 36.36H80.1586C80.9053 35.1466 82.1187 33.9332 84.1721 32.7198L85.8522 31.6931C87.9056 30.3863 90.7058 28.6129 90.7058 24.6927C90.7058 20.7726 87.719 18.2524 83.1454 18.2524C80.532 18.2524 78.4785 18.9991 76.9851 20.4925C76.0518 21.4259 75.305 22.7326 74.9317 24.2261C74.9317 24.4127 74.8384 24.5994 74.8384 24.8794C74.8384 25.9061 75.5851 26.8395 76.7984 27.1195C76.9851 27.1195 77.1718 27.2129 77.4518 27.2129C78.5719 27.2129 79.4119 26.5595 79.6919 25.5328C80.1586 23.8527 80.812 22.9193 82.9587 22.9193C83.6121 22.9193 85.8522 23.0127 85.8522 24.8794C85.8522 26.1861 85.2922 26.9328 82.7721 28.5196L80.9986 29.6396C78.4785 31.3197 76.7051 32.9998 75.6784 35.0532C75.3984 35.5199 74.5583 37.2 74.5583 38.6001C74.5583 40.2801 75.5851 41.3068 77.2651 41.3068H89.0257C90.2391 41.3068 91.1724 40.2801 91.1724 38.9734C91.2658 37.3867 90.4258 36.36 89.119 36.36Z" fill="white"/>
<path d="M108.533 31.5065H107.32V20.7726C107.32 19.1859 106.293 18.1592 104.706 18.1592C103.026 18.1592 102.28 18.9992 101.626 19.9326L93.786 30.6664C93.1326 31.5065 92.7593 32.2532 92.7593 33.4666C92.7593 34.96 93.786 35.9867 95.3727 35.9867H102.653V38.9735C102.653 40.2802 103.586 41.2136 104.987 41.2136C106.387 41.2136 107.32 40.2802 107.32 38.9735V35.9867H108.533C109.747 35.9867 110.68 35.0533 110.68 33.7466C110.68 32.3465 109.84 31.5065 108.533 31.5065ZM98.6395 31.5065L102.56 25.9995C102.56 25.9995 102.56 25.9995 102.56 26.0929V31.5998H98.6395V31.5065Z" fill="white"/>
<path d="M91.1725 56.0543H69.4249C67.5581 56.0543 66.158 54.5609 66.158 52.7875V30.8531C66.0647 16.6658 77.4519 4.90526 91.4525 4.62524H91.8259C98.7329 4.62524 105.173 7.33204 110.027 12.2789C114.88 17.2258 117.587 23.7595 117.494 30.7598C117.214 44.6671 105.453 56.0543 91.1725 56.0543ZM91.8259 6.95869H91.5459C78.7586 7.14536 68.3981 17.8792 68.3981 30.8531V52.6941C68.3981 53.2542 68.7715 53.6275 69.3315 53.6275H91.0792C104.146 53.6275 114.88 43.267 114.974 30.5731C115.067 24.2262 112.64 18.2525 108.253 13.7723C103.96 9.38547 98.0795 6.95869 91.8259 6.95869Z" fill="#62355C"/>
<path d="M57.011 67.4414C60.3101 67.4414 62.9846 64.7669 62.9846 61.4678C62.9846 58.1686 60.3101 55.4941 57.011 55.4941C53.7118 55.4941 51.0374 58.1686 51.0374 61.4678C51.0374 64.7669 53.7118 67.4414 57.011 67.4414Z" fill="#FDE445"/>
<path d="M57.0109 68.6549C53.0907 68.6549 49.9172 65.4814 49.9172 61.5612C49.9172 57.641 53.0907 54.4675 57.0109 54.4675C60.9311 54.4675 64.1046 57.641 64.1046 61.5612C64.1046 65.4814 60.9311 68.6549 57.0109 68.6549ZM57.0109 56.7076C54.3974 56.7076 52.2507 58.8544 52.2507 61.4679C52.2507 64.0813 54.3974 66.2281 57.0109 66.2281C59.6244 66.2281 61.7711 64.0813 61.7711 61.4679C61.7711 58.8544 59.6244 56.7076 57.0109 56.7076Z" fill="#62355C"/>
<path d="M21.2626 74.2551C20.7959 74.2551 20.3292 73.9751 20.1426 73.415C19.9559 72.7617 20.3292 72.1083 20.8893 71.9216L50.7573 62.5879C51.4107 62.4012 52.064 62.7745 52.2507 63.3346C52.4374 63.9879 52.064 64.6413 51.504 64.828L21.636 74.1617C21.4493 74.1617 21.3559 74.2551 21.2626 74.2551Z" fill="#62355C"/>
</svg>
