<svg width="121" height="121" viewBox="0 0 121 121" fill="none" xmlns="http://www.w3.org/2000/svg">
<path d="M37.5481 21.0493C36.2728 21.0445 35.2377 22.0795 35.2426 23.3548V31.8476L30.4114 36.1194C29.0761 37.2976 27.5543 38.5312 26.2752 40.1369C24.9961 41.7428 23.9697 43.845 23.9697 46.3243V98.1456C23.8303 101.641 24.6873 105.113 26.4447 108.113C26.4612 108.139 26.4782 108.157 26.4956 108.183C28.4207 111.182 31.7113 113.031 35.2426 113.031H85.7587L85.5044 113.014C88.7848 113.4 92.0364 112.051 94.1328 109.471C94.1823 109.401 94.2274 109.326 94.2685 109.25C96.3671 105.98 97.4893 102.163 97.4893 98.2484V46.0033C97.4893 39.5676 91.82 36.6077 85.7587 31.7811V23.3564C85.7636 22.0877 84.7389 21.0554 83.4702 21.0509L37.5481 21.0493Z" fill="#B3E5FC"/>
<path d="M85.5048 113.012C94.0955 113.012 97.4051 105.95 97.4891 98.2474V46.3675C97.4891 42.2845 95.3022 38.4565 91.0753 36.0161L85.7604 31.7822V23.3545C85.7653 22.0846 84.7385 21.0517 83.4685 21.0491L37.5498 21.0488C36.0147 21.0488 35.2427 22.2776 35.2427 23.354L35.2427 28.4909H81.1677V31.7816L86.4826 36.0156C89.8426 38.6319 92.8963 42.0247 92.8963 46.367V98.2468C92.277 104.956 90.2598 112.32 82.7689 113.03L85.5048 113.012Z" fill="#A1CEE3"/>
<path d="M37.548 7.4032C33.7711 7.4032 30.6487 10.5087 30.6487 14.2856V18.8117C30.6487 22.5886 33.7711 25.6941 37.548 25.6941H83.4702C87.2471 25.6941 90.3526 22.5886 90.3526 18.8117V14.2856C90.3526 10.5087 87.2471 7.4032 83.4702 7.4032H37.548Z" fill="#CCCCCC"/>
<path d="M60.5007 30.3557C50.8828 30.3557 43.1253 38.479 43.1252 48.3245C43.1252 58.1702 50.8827 66.2763 60.5007 66.2763C70.1187 66.2763 77.8763 58.1702 77.8762 48.3245C77.8762 38.479 70.1187 30.3557 60.5007 30.3557Z" fill="#FFCD40"/>
<path d="M60.5 37.2536C59.8933 37.2559 59.3122 37.4983 58.8836 37.9277C58.455 38.3572 58.2138 38.9387 58.2126 39.5455C57.9095 39.5443 57.6092 39.6031 57.329 39.7186C57.0488 39.834 56.7942 40.0038 56.5799 40.2181C56.3656 40.4324 56.1958 40.687 56.0804 40.9672C55.9649 41.2475 55.9061 41.5478 55.9072 41.8508V48.731C55.9097 49.34 56.1539 49.9232 56.5862 50.3521C57.0186 50.7811 57.6036 51.0208 58.2126 51.0184H60.5V53.3238H58.2126C57.9107 53.3226 57.6114 53.381 57.3321 53.4956C57.0527 53.6102 56.7987 53.7787 56.5846 53.9916C56.3705 54.2045 56.2004 54.4575 56.0842 54.7362C55.968 55.0149 55.9078 55.3138 55.9072 55.6157C55.9061 55.9188 55.9649 56.2191 56.0803 56.4993C56.1957 56.7796 56.3655 57.0342 56.5798 57.2485C56.7941 57.4628 57.0487 57.6326 57.329 57.748C57.6092 57.8634 57.9095 57.9222 58.2126 57.9211C58.215 58.527 58.4567 59.1074 58.8852 59.5359C59.3136 59.9644 59.8941 60.2061 60.5 60.2085C60.8016 60.2097 61.1004 60.1514 61.3795 60.0371C61.6586 59.9228 61.9124 59.7546 62.1264 59.5422C62.3405 59.3298 62.5107 59.0773 62.6272 58.7992C62.7436 58.521 62.8042 58.2226 62.8054 57.9211C63.4144 57.9186 63.9975 57.6744 64.4265 57.2421C64.8554 56.8097 65.0951 56.2247 65.0928 55.6157V48.731C65.0951 48.122 64.8554 47.537 64.4265 47.1047C63.9975 46.6723 63.4144 46.4281 62.8054 46.4257H60.5V44.1382H62.8054C63.4113 44.1359 63.9918 43.8941 64.4202 43.4657C64.8487 43.0372 65.0904 42.4568 65.0928 41.8508C65.094 41.5493 65.0358 41.2504 64.9214 40.9713C64.8071 40.6923 64.639 40.4385 64.4266 40.2244C64.2141 40.0103 63.9617 39.8402 63.6835 39.7237C63.4053 39.6072 63.1069 39.5466 62.8054 39.5455C62.8048 39.2435 62.7447 38.9447 62.6284 38.666C62.5122 38.3873 62.3422 38.1343 62.128 37.9214C61.9139 37.7085 61.6599 37.5399 61.3805 37.4254C61.1012 37.3108 60.802 37.2524 60.5 37.2536Z" fill="#F8A92D"/>
<path d="M58.2121 99.2476C54.4352 99.2476 51.3127 102.37 51.3127 106.147C51.3127 109.924 54.4352 113.029 58.2121 113.029H74.2823C78.0592 113.029 81.1647 109.924 81.1647 106.147C81.1647 102.37 78.0591 99.2476 74.2823 99.2476H58.2121Z" fill="#FFCD40"/>
<path d="M31.2569 104.504C30.2793 108.153 32.4873 111.977 36.1354 112.954C39.7836 113.932 43.5914 111.72 44.569 108.071L48.7283 92.5485C49.7058 88.9004 47.5099 85.0971 43.8617 84.1196C40.2135 83.142 36.3937 85.3336 35.4161 88.9818L31.2569 104.504Z" fill="#FFCD40"/>
<path d="M39.8372 16.5724C38.5685 16.5767 37.5448 17.609 37.5498 18.8778V25.6952H42.1247V18.8778C42.1297 17.609 41.106 16.5767 39.8372 16.5724ZM50.1755 16.5724C48.9001 16.5674 47.8651 17.6024 47.8701 18.8778V25.6952H52.4674V18.8778C52.4724 17.609 51.4442 16.5767 50.1755 16.5724ZM60.5003 16.5724C59.2315 16.5767 58.2078 17.609 58.2128 18.8778V25.6952H62.8056V18.8778C62.8107 17.6024 61.7756 16.5674 60.5003 16.5724ZM70.843 16.5724C69.5676 16.5674 68.5326 17.6024 68.5376 18.8778V25.6952H73.1304V18.8778C73.1354 17.609 72.1117 16.5767 70.843 16.5724ZM81.1633 16.5724C79.8946 16.5767 78.8708 17.609 78.8759 18.8778V25.6952H83.4686V18.8778C83.4737 17.6024 82.4386 16.5674 81.1633 16.5724Z" fill="#333333"/>
<path d="M60.5001 30.355C54.6583 30.355 49.5152 33.3622 46.3674 37.9215C49.1044 36.05 52.3779 34.9478 55.9073 34.9478C65.5253 34.9478 73.2827 43.0698 73.2827 52.9153C73.2827 56.7731 72.0807 60.3578 70.0534 63.2985C74.7674 60.0737 77.8755 54.5493 77.8755 48.3225C77.8755 38.477 70.118 30.355 60.5001 30.355Z" fill="#F8A92D"/>
<path d="M37.5497 7.40466C34.4569 7.40466 31.8299 9.49667 30.97 12.3249C31.6039 12.1305 32.2636 11.9975 32.9569 11.9975H78.8757C82.6526 11.9975 85.7604 15.1009 85.7604 18.8778V23.4034C85.7604 24.089 85.6277 24.7406 85.4374 25.3676C88.2608 24.5084 90.3531 21.8999 90.3531 18.8105V14.2849C90.3531 10.5081 87.2453 7.40493 83.4685 7.40493L37.5497 7.40466Z" fill="#B2B2B2"/>
<path d="M58.1962 99.2665C55.1062 99.2665 52.4972 101.358 51.6389 104.182C52.2661 103.992 52.9173 103.859 53.6034 103.859H69.6916C73.4685 103.859 76.5718 106.963 76.5718 110.74C76.5718 111.431 76.4378 112.089 76.2444 112.722C79.0708 111.861 81.1646 109.238 81.1646 106.147C81.1646 102.37 78.0613 99.2665 74.2844 99.2665H58.1962Z" fill="#F8A92D"/>
<path d="M42.4922 83.8989C39.3652 83.7167 36.4024 85.7177 35.4819 88.8057C36.6799 88.4359 37.9797 88.3665 39.2674 88.7111C42.9156 89.6887 45.1113 93.4951 44.1338 97.1433L39.976 112.662C39.9571 112.731 39.9208 112.794 39.8998 112.864C42.1024 112.186 43.9342 110.438 44.5689 108.069L48.7266 92.5509C49.7041 88.9028 47.5084 85.0963 43.8602 84.1188C43.4042 83.9964 42.9477 83.925 42.4922 83.8989Z" fill="#F8A92D"/>
<path d="M52.4656 90.0597C48.6888 90.0597 45.5833 93.1822 45.5833 96.959C45.5833 100.736 48.6888 103.841 52.4656 103.841H68.5358C72.3127 103.841 75.4352 100.736 75.4352 96.959C75.4352 93.1822 72.3127 90.0597 68.5358 90.0597H52.4656Z" fill="#FFCD40"/>
<path d="M52.4667 90.0786C49.3767 90.0786 46.7677 92.17 45.9094 94.9943C46.5366 94.8043 47.1878 94.6715 47.8739 94.6715H63.9621C67.739 94.6715 70.8423 97.7749 70.8423 101.552C70.8423 102.243 70.7083 102.901 70.5149 103.534C73.3413 102.673 75.4351 100.05 75.4351 96.9589C75.4351 93.182 72.3318 90.0786 68.5549 90.0786H52.4667Z" fill="#F8A92D"/>
<path d="M58.2121 80.8718C54.4352 80.8718 51.3127 83.9943 51.3127 87.7712C51.3127 91.548 54.4352 94.6535 58.2121 94.6536H74.2823C78.0592 94.6536 81.1647 91.548 81.1647 87.7712C81.1647 83.9943 78.0592 80.8718 74.2823 80.8718H58.2121Z" fill="#FFCD40"/>
<path d="M58.1948 80.8891C56.7891 80.9499 55.4226 81.4809 54.2128 82.1727C52.5943 83.3275 51.5335 85.2144 51.3728 87.1946C56.6562 87.2033 61.9403 87.1774 67.2234 87.2121C69.9762 87.3918 72.8895 87.8942 75.1342 89.6071C76.2854 90.4637 76.8314 91.9778 76.4805 93.373C76.3902 93.8981 76.0022 94.6461 76.8231 94.1392C79.8702 92.9551 81.7921 89.4271 80.9874 86.2315C80.3038 83.0491 77.1381 80.6743 73.8907 80.8949C68.6587 80.8933 63.4267 80.8907 58.1948 80.8891Z" fill="#F8A92D"/>
<path d="M51.3128 71.7007C47.5359 71.7007 44.4304 74.8063 44.4304 78.5831C44.4304 82.3599 47.5359 85.4655 51.3128 85.4655H67.4C71.1769 85.4655 74.2824 82.3599 74.2824 78.5831C74.2824 74.8063 71.1769 71.7007 67.4 71.7007H51.3128Z" fill="#FFCD40"/>
<path d="M51.3146 71.6993C48.2246 71.6993 45.6156 73.7905 44.7573 76.6148C45.3845 76.4247 46.0357 76.2919 46.7218 76.2919H62.81C66.5869 76.2919 69.6902 79.3953 69.6902 83.1722C69.6902 83.8639 69.5562 84.5219 69.3628 85.1547C72.1892 84.2938 74.283 81.6711 74.283 78.5796C74.283 74.8027 71.1797 71.6993 67.4028 71.6993H51.3146Z" fill="#F8A92D"/>
<path d="M55.9066 62.5131C52.1297 62.5131 49.0242 65.6186 49.0242 69.3954C49.0242 73.1723 52.1297 76.2948 55.9066 76.2948H71.9937C75.7706 76.2948 78.8761 73.1723 78.8761 69.3954C78.8761 65.6186 75.7706 62.5131 71.9937 62.5131H55.9066Z" fill="#FFCD40"/>
<path d="M55.9076 62.5135C52.8176 62.5135 50.2086 64.605 49.3503 67.4293C49.9775 67.2392 50.6288 67.1064 51.3148 67.1064H67.403C71.1799 67.1064 74.2832 70.2098 74.2832 73.9867C74.2832 74.6784 74.1492 75.3364 73.9558 75.9692C76.7822 75.1082 78.876 72.4853 78.876 69.3938C78.876 65.6169 75.7727 62.5138 71.9958 62.5138L55.9076 62.5135Z" fill="#F8A92D"/>
</svg>
