<svg width="574" height="574" viewBox="0 0 574 574" fill="none" xmlns="http://www.w3.org/2000/svg">
<g clip-path="url(#clip0_72_254)">
<path d="M574 295.8C574 449.375 449.507 559.867 302.378 559.867C155.25 559.867 30.7041 448.639 30.7041 295.8C30.7041 142.961 154.464 30.2631 302.378 30.2631C450.293 30.2631 574 142.226 574 295.853" fill="#F5F5F5"/>
<path d="M302.378 109.704C199.001 109.704 119.778 192.191 119.778 295.853C119.778 399.515 199.001 481.214 302.378 481.214C405.756 481.214 484.245 399.515 484.245 295.853C484.245 192.191 405.756 109.704 302.378 109.704Z" fill="#555D9D"/>
<path d="M170.812 321.072C103.43 216.15 153.94 80.9117 283.673 19.0195C299.968 11.2436 316.787 4.99132 333.816 0.210172C284.511 -1.62873 233.32 8.03864 186.111 30.5783C56.3783 92.4705 5.86841 227.709 73.2499 332.631C132.143 424.313 261.666 462.51 379.977 429.305C293.89 426.1 213.672 387.798 170.864 321.072H170.812Z" fill="#FFF343"/>
<path d="M246.524 435.294C113.909 412.86 28.6083 297.114 56.0115 176.745C59.4696 161.613 64.4996 147.112 70.9968 133.399C38.6683 163.4 15.0901 201.754 5.13478 245.572C-22.2684 365.941 63.0326 481.687 195.647 504.122C311.548 523.719 425.3 465.505 470.36 370.145C413.93 422.58 330.829 449.533 246.524 435.294Z" fill="#FF8100"/>
<path d="M395.224 453.158C292.947 525.978 140.841 512.843 55.54 423.788C44.7988 412.597 35.6818 400.723 28.032 388.376C33.324 427.151 51.1911 465.137 82.262 497.554C167.563 586.61 319.669 599.745 421.946 526.977C511.387 463.298 533.131 355.013 480.211 269.268C489.485 336.939 460.248 406.87 395.224 453.158Z" fill="#D24A43"/>
</g>
<defs>
<clipPath id="clip0_72_254">
<rect width="574" height="574" fill="white"/>
</clipPath>
</defs>
</svg>
