<svg width="44" height="43" viewBox="0 0 44 43" fill="none" xmlns="http://www.w3.org/2000/svg">
<path d="M41.6429 21.5706C41.6429 34.267 37.4822 39.892 26.5536 40.9992C25.0403 41.1469 23.5205 41.2184 22 41.2134H20.0536C7.17861 40.6956 2.35718 35.2492 2.35718 21.5706C2.35718 7.28488 7.71432 1.92773 22 1.92773C36.2857 1.92773 41.6429 7.28488 41.6429 21.5706Z" fill="url(#paint0_linear_214_154)"/>
<path d="M26.5537 18.9458V23.1066H32.5716L31.6251 29.2137H26.5537V40.9994C25.0404 41.1472 23.5206 41.2187 22.0001 41.2137H20.0537V29.2494H14.5537V23.1066H20.0537V18.5173C19.9989 17.406 20.1665 16.2949 20.5467 15.2493C20.9269 14.2036 21.5121 13.2445 22.268 12.428C25.3751 9.07084 32.7144 10.8565 32.7144 10.8565V15.9637H29.5359C28.7449 15.9637 27.9864 16.2779 27.4272 16.8371C26.8679 17.3964 26.5537 18.1549 26.5537 18.9458Z" fill="white"/>
<defs>
<linearGradient id="paint0_linear_214_154" x1="22" y1="41.2134" x2="22" y2="1.92773" gradientUnits="userSpaceOnUse">
<stop stop-color="#0066EF"/>
<stop offset="1" stop-color="#00B2FF"/>
</linearGradient>
</defs>
</svg>
