<svg width="50" height="51" viewBox="0 0 50 51" fill="none" xmlns="http://www.w3.org/2000/svg">
<g clip-path="url(#clip0_214_148)">
<path fill-rule="evenodd" clip-rule="evenodd" d="M45.8334 15.4401C45.8334 9.68802 41.1688 5.02344 35.4167 5.02344C29.0542 5.02344 20.9459 5.02344 14.5834 5.02344C8.83133 5.02344 4.16675 9.68802 4.16675 15.4401C4.16675 21.8026 4.16675 29.9109 4.16675 36.2734C4.16675 42.0255 8.83133 46.6901 14.5834 46.6901C20.9459 46.6901 29.0542 46.6901 35.4167 46.6901C41.1688 46.6901 45.8334 42.0255 45.8334 36.2734C45.8334 29.9109 45.8334 21.8026 45.8334 15.4401Z" fill="url(#paint0_radial_214_148)"/>
<path d="M31.1624 11.2844C35.5186 11.326 39.529 15.0656 39.5728 19.6948C39.5874 23.8031 39.5874 27.9115 39.5728 32.0198C39.5311 36.3594 35.7915 40.3865 31.1624 40.4302C27.054 40.4448 22.9457 40.4448 18.8374 40.4302C14.479 40.3885 10.4707 36.649 10.427 32.0198C10.4124 27.9115 10.4124 23.8031 10.427 19.6948C10.4665 15.3344 14.1978 11.3281 18.8374 11.2844C22.9457 11.2698 27.054 11.2698 31.1624 11.2844ZM18.8936 13.2531C15.5124 13.2635 12.429 16.1948 12.3957 19.7073C12.3832 23.8073 12.3832 27.9073 12.3957 32.0073C12.427 35.351 15.2874 38.4281 18.8499 38.4615C22.9499 38.474 27.0499 38.474 31.1499 38.4615C34.502 38.4302 37.5707 35.5698 37.604 32.0073C37.6165 27.9073 37.6165 23.8073 37.604 19.7073C37.5728 16.3406 34.6561 13.2865 31.1499 13.2531C27.0645 13.2406 22.979 13.2531 18.8936 13.2531Z" fill="white"/>
<path d="M25.0501 18.5654C28.4209 18.5967 31.5626 21.1967 32.1792 24.5279C32.6188 26.9029 31.7897 29.4779 30.0397 31.1488C28.0917 33.0029 25.0772 33.6654 22.4938 32.7196C19.6063 31.6633 17.5751 28.6196 17.7105 25.5363C17.8751 21.8529 21.1292 18.5779 25.0001 18.5654C25.0167 18.5654 25.0334 18.5654 25.0501 18.5654ZM24.9667 20.5383C22.5605 20.5613 20.2917 22.3863 19.7917 24.7571C19.2855 27.155 20.6647 29.8154 22.9292 30.7717C25.4022 31.8175 28.5959 30.6446 29.7897 28.2029C31.0251 25.68 29.8605 22.2529 27.2522 21.0342C26.5417 20.7029 25.7522 20.5363 24.9667 20.5383Z" fill="white"/>
<path fill-rule="evenodd" clip-rule="evenodd" d="M34.375 17.9965C34.375 17.5944 34.2146 17.209 33.9313 16.9257C33.6479 16.6423 33.2625 16.4819 32.8604 16.4819C32.8292 16.4819 32.7958 16.4819 32.7646 16.4819C32.3625 16.4819 31.9771 16.6423 31.6938 16.9257C31.4104 17.209 31.25 17.5944 31.25 17.9965C31.25 18.0132 31.25 18.0278 31.25 18.0444C31.25 18.459 31.4146 18.8569 31.7083 19.1486C32 19.4423 32.3979 19.6069 32.8125 19.6069C33.675 19.6069 34.375 18.9069 34.375 18.0444C34.375 18.0278 34.375 18.0132 34.375 17.9965Z" fill="white"/>
</g>
<defs>
<radialGradient id="paint0_radial_214_148" cx="0" cy="0" r="1" gradientUnits="userSpaceOnUse" gradientTransform="translate(4.16675 45.6484) scale(58.1937)">
<stop stop-color="#FF8100"/>
<stop offset="0.19" stop-color="#FF7209"/>
<stop offset="0.32" stop-color="#F55E16"/>
<stop offset="0.48" stop-color="#D92938"/>
<stop offset="1" stop-color="#9100FF"/>
</radialGradient>
<clipPath id="clip0_214_148">
<rect width="50" height="50" fill="white" transform="translate(0 0.856689)"/>
</clipPath>
</defs>
</svg>
