<svg width="14" height="22" viewBox="0 0 14 22" fill="none" xmlns="http://www.w3.org/2000/svg">
<path d="M7.77186 0.566028C5.21635 1.23058 3.58348 4.32992 4.11941 7.49875C4.23344 8.17297 4.45621 8.81891 4.73334 9.45072L0.2215 18.0147L0.791638 21.3858L3.51028 20.6788L3.1682 18.6562L4.79938 18.232L4.4573 16.2093L6.08849 15.7851L8.02213 12.1149C8.54571 12.1899 9.11224 12.1833 9.71033 12.0278C12.2659 11.3632 13.8987 8.26391 13.3628 5.09508C12.8268 1.92626 10.3274 -0.0985308 7.77186 0.566028ZM10.1574 6.28054C9.23309 6.52091 8.37802 5.82825 8.18417 4.68205C7.99032 3.53586 8.54892 2.47558 9.47327 2.2352C10.3976 1.99483 11.2527 2.68749 11.4465 3.83369C11.6404 4.97988 11.0818 6.04016 10.1574 6.28054Z" fill="#F5F5F5"/>
</svg>
