<svg width="44" height="44" viewBox="0 0 44 44" fill="none" xmlns="http://www.w3.org/2000/svg">
<g clip-path="url(#clip0_214_143)">
<path d="M37.0001 0.713867H7.0001C3.4497 0.713867 0.571533 3.59204 0.571533 7.14244V37.1424C0.571533 40.6928 3.4497 43.571 7.0001 43.571H37.0001C40.5505 43.571 43.4287 40.6928 43.4287 37.1424V7.14244C43.4287 3.59204 40.5505 0.713867 37.0001 0.713867Z" fill="#37AEE2"/>
<path d="M17.2289 34.5309C16.3081 34.5309 16.3918 34.196 16.1407 33.359L13.4622 24.5699L33.97 12.5164" fill="#C8DAEA"/>
<path d="M17.2288 34.5307C17.8147 34.5307 18.1495 34.1959 18.568 33.8611L22.3348 30.2618L17.6473 27.4158" fill="#A9C9DD"/>
<path d="M17.6475 27.4157L28.9477 35.7025C30.1196 36.4558 31.1241 36.0373 31.4589 34.5306L36.0627 12.9346C36.4812 11.0931 35.3093 10.2561 34.0537 10.842L7.18432 21.2215C5.42651 21.8911 5.42651 22.9793 6.8495 23.3978L13.797 25.5741L29.7011 15.4458C30.4544 15.0273 31.1241 15.1947 30.6218 15.7806" fill="#F6FBFE"/>
</g>
<defs>
<clipPath id="clip0_214_143">
<rect width="42.8571" height="42.8571" fill="white" transform="translate(0.571533 0.713867)"/>
</clipPath>
</defs>
</svg>
